<?xml version="1.0" standalone="no"?>
<!DOCTYPE svg PUBLIC "-//W3C//DTD SVG 1.1//EN" "http://www.w3.org/Graphics/SVG/1.1/DTD/svg11.dtd" >
<svg xmlns="http://www.w3.org/2000/svg">
<metadata>
Created by FontForge 20120731 at Tue Dec 15 17:43:46 2015
 By Ads
</metadata>
<defs>
<font id="iconfont" horiz-adv-x="1024" >
  <font-face 
    font-family="iconfont"
    font-weight="500"
    font-stretch="normal"
    units-per-em="1024"
    panose-1="2 0 6 3 0 0 0 0 0 0"
    ascent="896"
    descent="-128"
    x-height="792"
    bbox="0 -150 1365 920"
    underline-thickness="50"
    underline-position="-100"
    unicode-range="U+0078-E64C"
  />
<missing-glyph horiz-adv-x="374" 
d="M34 0v682h272v-682h-272zM68 34h204v614h-204v-614z" />
    <glyph glyph-name=".notdef" horiz-adv-x="374" 
d="M34 0v682h272v-682h-272zM68 34h204v614h-204v-614z" />
    <glyph glyph-name=".null" horiz-adv-x="0" 
 />
    <glyph glyph-name="nonmarkingreturn" horiz-adv-x="341" 
 />
    <glyph glyph-name="x" unicode="x" horiz-adv-x="1001" 
d="M281 543q-27 -1 -53 -1h-83q-18 0 -36.5 -6t-32.5 -18.5t-23 -32t-9 -45.5v-76h912v41q0 16 -0.5 30t-0.5 18q0 13 -5 29t-17 29.5t-31.5 22.5t-49.5 9h-133v-97h-438v97zM955 310v-52q0 -23 0.5 -52t0.5 -58t-10.5 -47.5t-26 -30t-33 -16t-31.5 -4.5q-14 -1 -29.5 -0.5
t-29.5 0.5h-32l-45 128h-439l-44 -128h-29h-34q-20 0 -45 1q-25 0 -41 9.5t-25.5 23t-13.5 29.5t-4 30v167h911zM163 247q-12 0 -21 -8.5t-9 -21.5t9 -21.5t21 -8.5q13 0 22 8.5t9 21.5t-9 21.5t-22 8.5zM316 123q-8 -26 -14 -48q-5 -19 -10.5 -37t-7.5 -25t-3 -15t1 -14.5
t9.5 -10.5t21.5 -4h37h67h81h80h64h36q23 0 34 12t2 38q-5 13 -9.5 30.5t-9.5 34.5q-5 19 -11 39h-368zM336 498v228q0 11 2.5 23t10 21.5t20.5 15.5t34 6h188q31 0 51.5 -14.5t20.5 -52.5v-227h-327z" />
    <glyph glyph-name="uniE600" unicode="&#xe600;" 
d="M386 680q0 153 95 153q47 0 71.5 -37t24.5 -116v-589q0 -156 -96 -156q-23 0 -40.5 9t-30 28t-18.5 48.5t-6 70.5v589z" />
    <glyph glyph-name="uniE601" unicode="&#xe601;" 
d="M512 830q-61 0 -118.5 -16t-106.5 -45t-90 -70t-70 -90t-45 -106.5t-16 -118.5q0 -91 35.5 -173.5t95 -142t142 -95t173.5 -35.5t173.5 35.5t142 95t95 142t35.5 173.5t-35.5 173.5t-95 142t-142 95t-173.5 35.5zM727 458l-256 -259v-1q-2 -2 -6 -4h-1q-1 -1 -2 -1.5
t-2 -1.5q-6 -2 -12 -2t-12 2q-1 1 -2 1.5t-1 1.5q-6 3 -7 4v1h-1l-126 129q-9 10 -9 23t9.5 22.5t23 9t22.5 -9.5l103 -106l234 236q9 9 22.5 9t22.5 -9t9.5 -22.5t-9.5 -22.5z" />
    <glyph glyph-name="uniE602" unicode="&#xe602;" 
d="M512 -64q-185 0 -316.5 131.5t-131.5 316.5t131.5 316.5t316.5 131.5t316.5 -131.5t131.5 -316.5t-131.5 -316.5t-316.5 -131.5zM512 768q-104 0 -192.5 -51.5t-140 -140t-51.5 -192.5t51.5 -192.5t140 -140t192.5 -51.5t192.5 51.5t140 140t51.5 192.5t-51.5 192.5
t-140 140t-192.5 51.5zM727 502.5q-9 9.5 -22.5 9.5t-22.5 -9l-234 -236l-103 106q-9 9 -22.5 9.5t-23 -9t-9.5 -22.5t9 -23l126 -129h1v-1q1 -1 7 -4q0 -1 1 -1.5t2 -1.5q6 -2 12 -2q7 0 12 2l2 2q1 0 1.5 0.5t1.5 0.5q4 2 6 4v1l256 259q10 9 9.5 22t-9.5 22.5z" />
    <glyph glyph-name="uniE603" unicode="&#xe603;" 
d="M512 832q-185 0 -316.5 -131.5t-131.5 -316.5t131.5 -316.5t316.5 -131.5t316.5 131.5t131.5 316.5t-131.5 316.5t-316.5 131.5zM765 96q0 4 -1.5 9t-4 9t-6.5 7t-9 5q-2 1 -15 6.5t-24 9.5t-27 9.5t-34 10t-36 7.5v14q46 45 74 122.5t28 146.5q0 96 -47.5 148t-134.5 52
q-89 0 -140.5 -53t-51.5 -147q0 -28 6 -69.5t25.5 -99t48.5 -92.5v-17q-34 -9 -73.5 -19.5t-68.5 -20.5q-11 -4 -16 -14.5t-2 -21.5q-61 53 -95 127.5t-34 158.5q0 104 51.5 192.5t140 140t193 51.5t193 -51.5t140 -140t51.5 -192.5q0 -85 -35 -160t-96 -128z" />
    <glyph glyph-name="uniE604" unicode="&#xe604;" 
d="M512 832q-185 0 -316.5 -131.5t-131.5 -316.5t131.5 -316.5t316.5 -131.5t316.5 131.5t131.5 316.5t-131.5 316.5t-316.5 131.5zM289 72q7 0 10 1q47 17 90 28t68 13q12 1 20.5 10t8.5 22v59q0 15 -11 24q-37 32 -54.5 94.5t-17.5 128.5q0 136 125 136q40 0 66 -15
t39 -45t13 -76q0 -21 -3 -44.5t-9 -45.5t-14 -43t-18 -39t-21.5 -33t-24.5 -24q-12 -10 -12 -25v-55q0 -3 0.5 -5.5t1 -4.5t1.5 -4t2.5 -4t2.5 -3l4 -4q1 -1 3 -2.5t4.5 -2.5t4.5 -1.5t5 -0.5q50 -6 148 -45h3q1 -1 2 -1q-31 -20 -65 -34.5t-72 -22.5t-77 -8q-122 0 -223 72
zM765 95q0 23 -20 31q-80 31 -137 43v14q48 45 75 121.5t27 147.5q0 64 -21.5 108.5t-62 68t-98.5 23.5q-59 0 -101.5 -23.5t-65 -68.5t-22.5 -108q0 -17 1 -36t6 -51.5t13.5 -61t24.5 -59.5t38 -53v-17q-61 -11 -145 -41q-11 -3 -16.5 -13.5t-3.5 -21.5q-60 53 -94.5 127.5
t-34.5 158.5q0 104 51.5 192.5t140 140t192.5 51.5t192.5 -51.5t140 -140t51.5 -192.5q0 -85 -35 -160t-96 -129z" />
    <glyph glyph-name="uniE605" unicode="&#xe605;" 
d="M524 353l2 2q12 12 12 29.5t-12 29.5l-389 389q-13 12 -30 12t-29 -12q-8 -8 -11 -18.5t0 -21.5t11 -19l359 -360l-356 -355q-13 -14 -14.5 -32.5t11 -30.5t31 -11t31.5 14l382 382l2 1v1zM944 414l-389 389q-13 12 -30 12t-29.5 -12t-12.5 -29.5t12 -29.5l360 -360
l-356 -355q-14 -14 -15 -32.5t11 -30.5q4 -4 9 -6.5t10.5 -4t11.5 -1t11.5 2t11 5t9.5 7.5l382 382l2 2l2 2q12 12 12 29.5t-12 29.5z" />
    <glyph glyph-name="uniE606" unicode="&#xe606;" 
d="M512 -64q-185 0 -316.5 131.5t-131.5 316.5t131.5 316.5t316.5 131.5t316.5 -131.5t131.5 -316.5t-131.5 -316.5t-316.5 -131.5zM512 768q-159 0 -271.5 -112.5t-112.5 -271.5t112.5 -271.5t271.5 -112.5t271.5 112.5t112.5 271.5t-112.5 271.5t-271.5 112.5z" />
    <glyph glyph-name="uniE607" unicode="&#xe607;" 
d="M828.5 699.5q-63.5 63.5 -145 97t-171.5 33.5t-171.5 -33.5t-145 -97t-97.5 -145t-34 -170.5t34 -170.5t97.5 -145t145 -97t171.5 -33.5t171.5 33.5t145 97t97.5 145t34 170.5t-34 170.5t-97.5 145zM736 352h-192v-192q0 -13 -9.5 -22.5t-22.5 -9.5t-22.5 9.5t-9.5 22.5
v192h-192q-13 0 -22.5 9.5t-9.5 22.5t9.5 22.5t22.5 9.5h192v192q0 13 9.5 22.5t22.5 9.5t22.5 -9.5t9.5 -22.5v-192h192q13 0 22.5 -9.5t9.5 -22.5t-9.5 -22.5t-22.5 -9.5z" />
    <glyph glyph-name="uniE608" unicode="&#xe608;" 
d="M512 -62q-90 0 -171.5 33.5t-145 97t-97.5 145t-34 170.5q0 59 15 115.5t44.5 107t71.5 92.5q64 64 145.5 97.5t171.5 33.5t171.5 -33.5t145.5 -97.5q42 -42 71.5 -92.5t44.5 -107t15 -115.5q0 -89 -34 -170.5t-97.5 -145t-145 -97t-171.5 -33.5zM512 766q-77 0 -147 -29
t-125 -83q-27 -27 -48 -58.5t-35 -65.5t-21.5 -71t-7.5 -75q0 -77 29 -146.5t83.5 -123.5t124.5 -83t147 -29q51 0 99.5 13t92 38t80.5 61q54 54 83 124t29 146.5t-29 146t-83.5 123.5t-124.5 83t-147 29zM736 416h-192v192q0 13 -9.5 22.5t-22.5 9.5t-22.5 -9.5t-9.5 -22.5
v-192h-192q-13 0 -22.5 -9.5t-9.5 -22.5t9.5 -22.5t22.5 -9.5h192v-192q0 -13 9.5 -22.5t22.5 -9.5t22.5 9.5t9.5 22.5v192h192q13 0 22.5 9.5t9.5 22.5t-9.5 22.5t-22.5 9.5z" />
    <glyph glyph-name="uniE609" unicode="&#xe609;" 
d="M512 -62q-61 0 -118.5 16t-106.5 45t-90 70t-70 90t-45 106.5t-16 118.5q0 91 35.5 173.5t95 142t142 95t173.5 35.5q61 0 118.5 -16t106.5 -45t90 -70t70 -90t45 -106.5t16 -118.5q0 -91 -35.5 -173.5t-95 -142t-142 -95t-173.5 -35.5zM512 766q-62 0 -120.5 -19.5
t-105.5 -54.5t-82 -82t-54.5 -105.5t-19.5 -120.5q0 -104 51 -192t139 -139t192 -51t192 51t139 139t51 192t-51 192t-139 139t-192 51zM464 592q0 -20 14 -34t34 -14t34 14t14 34t-14 34t-34 14t-34 -14t-14 -34zM512 128q-13 0 -22.5 9.5t-9.5 22.5v288q0 13 9.5 22.5
t22.5 9.5t22.5 -9.5t9.5 -22.5v-288q0 -13 -9.5 -22.5t-22.5 -9.5z" />
    <glyph glyph-name="uniE60A" unicode="&#xe60a;" 
d="M967 180q-4 2 -11 6.5t-25.5 14t-38.5 19t-49 21.5t-58.5 22t-65.5 19.5t-70 15.5l-1 5v17q0 14 2 23q4 18 18 37q24 35 36.5 79t21.5 100q4 31 4 60v10q0 5 -0.5 9.5t-1 9.5t-1 9t-0.5 9q-10 68 -43 111.5t-98 70.5q-9 4 -20 6t-20 2h-18l-12 -1l-11 1h-18q-9 0 -20 -2
t-20 -7q-60 -25 -91 -69.5t-41 -117.5q-3 -21 -3 -45q0 -27 4 -56q3 -24 6 -40t7.5 -37t9.5 -36.5t13.5 -33t18.5 -32.5q3 -4 6 -9.5t6.5 -14t5.5 -15.5q3 -17 2 -38l-1 -3q-35 -5 -71 -14.5t-66 -19.5t-59 -22t-49.5 -21.5t-39 -19.5t-25.5 -14t-11 -6l-12 -8v-185l24 -1h3
q239 -8 435 -8q235 0 435 5h25v187zM928 37q-234 -4 -409 -4q-181 0 -411 7v106q156 87 308 106q9 1 15 7.5t7 14.5h2l2 26v6v12q0 8 -1 17t-2 17q-2 8 -5.5 17.5t-7.5 17t-7 13t-6 9.5q-13 20 -22.5 47t-14 50.5t-9.5 59.5q-2 13 -3 25t-1 24q0 21 3 39q8 59 31 92.5
t70 53.5q5 3 11 3.5t12 0.5h14h12h13q27 1 37 -3q48 -20 75 -51.5t35 -90.5q1 -10 2 -19.5t1 -20.5q0 -26 -4 -52q-8 -52 -18.5 -90.5t-31.5 -67.5q-19 -28 -25 -55q-4 -22 -3 -55l1 -13v-1q-2 -4 -2 -6q-1 -10 5.5 -18.5t16.5 -10.5q153 -19 310 -107v-106z" />
    <glyph glyph-name="uniE60B" unicode="&#xe60b;" 
d="M768 381q-80 0 -136 -55.5t-56 -134.5q0 -26 7 -51t19 -45.5t30 -38.5t39 -30t46 -19t51 -7q80 0 136 56t56 135q0 26 -7 50.5t-19 45.5t-30 38.5t-39 29.5t-46 19t-51 7zM766 67q-8 -7 -18.5 -7t-18.5 7l-81 80q-5 5 -7 11.5t0 13t7 11t11.5 6.5t13 0t11.5 -7l63 -62
l123 120q5 5 11.5 6.5t13 0t11.5 -6.5q8 -7 8 -17.5t-8 -17.5zM812 611h-255q-4 0 -7.5 -1.5t-6 -4t-4 -6t-1.5 -7.5q0 -8 5.5 -13.5t13.5 -5.5h255q8 0 13.5 5.5t5.5 13.5t-5.5 13.5t-13.5 5.5zM812 516h-255q-4 0 -7.5 -1.5t-6 -4t-4 -6t-1.5 -7.5q0 -8 5.5 -13.5
t13.5 -5.5h255q19 0 19 19q0 2 -0.5 4.5t-2 5t-3 4t-3.5 3t-4.5 2t-5.5 0.5zM645 401q0 6 -2.5 10t-7 7t-9.5 3h-69q-3 0 -6 -1t-5.5 -3t-4 -4.5t-2.5 -5t-1 -6.5q0 -5 2.5 -9.5t7 -7t9.5 -2.5h69q8 0 13.5 5.5t5.5 13.5zM301 372q-2 -3 -6 -6t-9 -6q-7 -4 -14.5 -7
t-16 -5.5t-16.5 -5t-16 -5.5q-16 -5 -28 -15q-6 -4 -9.5 -11t-4.5 -16q-5 -32 -2 -52q1 -6 2 -11t2.5 -8t2.5 -4l2 -2h4q1 -1 3.5 -2t4.5 -1q6 -1 13 -2.5t15 -2.5q16 -2 35 -5l20 -2l20 -2q21 -1 38 -2q7 -1 13 -1h10h10q15 0 33 1h8q4 0 8 1h8q4 1 8 1h9q21 2 41 5
q11 1 22 3v135q-4 1 -7 2q-14 4 -27 9t-20.5 12t-11.5 15q-1 1 -1.5 3t-1.5 4t-1 4v4q-1 7 1 14q2 13 7 18q6 4 16 12q3 3 6.5 9.5t5.5 12.5q1 2 2 4.5t1.5 5.5t1.5 5q2 1 4.5 2.5t4.5 3.5q4 3 7 9t4 16q1 8 0 14l-3 8q-2 4 -5 7q0 20 -3 39q-1 8 -3 17t-5 19q-6 18 -18 34
q-6 7 -15.5 13.5t-21.5 12.5q-6 2 -12.5 4t-13.5 4q-14 3 -28 3q-5 0 -11 -0.5t-12 -0.5q-12 -2 -24 -7t-23 -13.5t-21 -21.5q-1 -3 -3 -5l-2 -6l-4 -4l-2 -6l-2 -6l-2 -6q-2 -6 -3 -12l-2 -10q-1 -6 -2 -11q-2 -18 -2 -37q-1 -2 -2.5 -3.5t-2 -3t-1.5 -3.5q-2 -5 -3 -12
t2 -15l4 -7l2 -5l7 -7q3 -3 6 -4q1 -2 2 -5t1.5 -5.5t1.5 -4.5q3 -6 5 -13q4 -6 7 -9q4 -3 8 -6.5t7.5 -7t5.5 -7.5t2 -10q0 -4 0.5 -7.5t0.5 -6.5t-1 -6l-2 -6q-2 -6 -8 -12zM142 158q-6 0 -12 2.5t-10.5 5.5t-9 7.5t-7 10t-4 11.5t-1.5 12v480q0 20 14.5 34t34.5 14h726
q7 0 13.5 -2t12 -5t10.5 -7t8.5 -9.5t5 -11.5t1.5 -13v-298q7 -4 12.5 -9.5t11 -10.5t10.5 -11v346q0 27 -20.5 45.5t-48.5 18.5h-759q-27 0 -46.5 -18.5t-19.5 -45.5v-513q0 -10 3 -19.5t8.5 -17.5t12.5 -14.5t16.5 -10t18.5 -4.5h400q-5 16 -7 33h-374z" />
    <glyph glyph-name="uniE60C" unicode="&#xe60c;" 
d="M552 751q-84 83 -202.5 82.5t-202 -84.5t-83 -202.5t84.5 -202.5q65 -64 155.5 -78.5t169.5 25.5l80 -80l135 1v-135h135l1 -135l135 1l-1 135l-351 348q39 79 24 169.5t-80 155.5zM350 547q-31 -31 -75.5 -31.5t-76 31t-31.5 76t31 76t75.5 31.5t76.5 -31q15 -15 23 -35
t8.5 -40.5t-7.5 -40.5t-24 -36z" />
    <glyph glyph-name="uniE60D" unicode="&#xe60d;" 
d="M968 809v-521q0 -47 -23 -93t-60 -90q-36 -43 -84 -83q-12 -9 -24 -18.5t-24 -18t-24 -16.5l-24 -16q-49 -30 -95 -50q-46 -21 -81 -28l-11 -2l-10 2q-35 7 -82 28q-24 10 -48 22.5t-50 27.5q-50 31 -99 69.5t-87 82.5t-62 90q-12 23 -18 46.5t-6 46.5v521l38 5l419 81
l427 -81zM513 820l-5 1l-360 -63v-329h365v391zM876 429h-363v-468q35 9 76 26t81 40q41 23 78 51q36 29 65 61t46 67.5t17 71.5v151z" />
    <glyph glyph-name="uniE60E" unicode="&#xe60e;" 
d="M748 801l-471 1q-35 0 -60 -21.5t-25 -52.5l-1 -685q0 -30 25 -51.5t60 -21.5l471 -1q35 0 59.5 21.5t25.5 52.5l1 684q0 31 -25 52.5t-60 21.5zM408 767h206q5 0 9 -2t6 -5.5t2 -7.5q0 -6 -5 -10.5t-12 -4.5v0h-206q-7 0 -12 4.5t-5 11t5 10.5t12 4zM510 3v0
q-24 0 -41 15t-17 37q0 14 8 25.5t21 18.5t29 7q24 0 41 -15t17 -36q0 -6 -1.5 -12t-4.5 -11t-7 -9.5t-9 -8t-10.5 -6t-12 -4t-13.5 -1.5zM783 145l-543 1l1 566h543z" />
    <glyph glyph-name="uniE60F" unicode="&#xe60f;" 
d="M840 648h-404v14q0 7 -3 12.5t-9 9t-13 3.5h-143q-10 0 -17.5 -7t-7.5 -18v-14h1h-57q-50 0 -84.5 -33.5t-34.5 -81.5v-384q0 -18 6 -36t17 -32t25.5 -24.5t32.5 -16.5t38 -6h653q50 0 84.5 34t34.5 81v384q0 31 -16 57.5t-43 42t-60 15.5zM249 449q-20 0 -34 14
t-14 33.5t14 33t34 13.5t34.5 -13.5t14.5 -33t-14.5 -33.5t-34.5 -14zM655.5 150q-80.5 0 -137.5 55t-57 133t57 133.5t137.5 55.5t138 -55.5t57.5 -133.5t-57.5 -133t-138 -55zM653 185q-43 0 -79.5 20.5t-58 56t-21.5 76.5q0 64 46.5 109t112 45t112 -45t46.5 -108.5
t-46.5 -108.5t-111.5 -45zM437 651v14q0 11 -7.5 18t-18.5 7h-142q-10 0 -18 -7t-8 -18v-14h194z" />
    <glyph glyph-name="uniE610" unicode="&#xe610;" 
d="M939 220l-68 105q1 12 1 25q0 65 -44.5 111t-108.5 46q-33 0 -62.5 -13.5t-51.5 -37.5h-86q4 23 -4 43q-13 31 2 59.5t49 21.5q6 -1 10.5 4t3 11t-7.5 7q-32 6 -56 -12t-29 -51q-2 -14 1 -30q1 -5 5.5 -17.5t4.5 -20.5q1 -4 0.5 -8t-1.5 -7h-79q-46 51 -114 51
q-64 0 -108.5 -46t-44.5 -111l1 -24l-69 -106q-26 -41 -17 -89.5t49.5 -76t88 -18t73.5 50.5l74 113q39 13 67 44h187q9 -10 19.5 -18t22 -14.5t24.5 -10.5l74 -114q27 -41 74.5 -50.5t87.5 18t49.5 76t-17.5 89.5zM365 343h-48v-49h-37v49h-48v38h48v49h37v-49h48v-38z
M480 300h-32v16h32v-16zM524 300h-33v16h33v-16zM568 300h-33v16h33v-16zM664 338q-3 0 -7 1t-6.5 3.5t-5 5.5t-3.5 6.5t-1 7.5q0 10 7 17t16.5 7t16.5 -7t7 -17t-7 -17t-17 -7zM732 271q-4 0 -7 0.5t-5.5 2t-4.5 4t-3.5 5t-2.5 5.5t-1 7t1.5 7.5t3.5 6.5t5 5t6.5 3.5
t7.5 1.5q9 0 16 -7t7 -17q0 -5 -2 -9.5t-5 -8t-7.5 -5t-8.5 -1.5zM732 405q-5 0 -9.5 2t-7.5 5t-5 7.5t-2 9.5q0 10 7 17t16.5 7t16.5 -7t7 -17t-7 -17t-16 -7zM796 338q-4 0 -7.5 1t-6.5 3.5t-5 5.5t-3.5 6.5t-1.5 7.5q0 5 2 9.5t5 7.5t7.5 5t9.5 2q9 0 16 -7t7 -17
q0 -7 -3 -12.5t-8.5 -8.5t-11.5 -3zM604 468q1 1 2 3t6 7.5t11 10t16 10.5t22 10.5t28.5 7.5t34.5 3q25 0 48 -8t38 -19t26 -22.5t16 -19.5l5 -8q0 3 -1 7l-6 16q-5 12 -11 23t-17 24.5t-24 23t-32 16.5t-41 7q-30 0 -53.5 -9.5t-35.5 -23t-20 -27t-10 -23.5zM421 468
q-1 1 -2 3t-6 7.5t-11 10t-16 10.5t-22 10.5t-28.5 7.5t-34.5 3t-35.5 -4t-30.5 -11t-24 -15t-19 -16.5t-13.5 -15t-8.5 -10.5l-2 -5q0 2 0.5 4.5t3.5 10.5t6.5 15.5t9.5 18t13 19.5t17 18.5t22 15.5t27.5 10.5t32.5 4.5t32.5 -3.5t26.5 -8.5t20 -12t15.5 -14.5t11.5 -15.5
t7.5 -14.5t4.5 -12t2 -8.5z" />
    <glyph glyph-name="uniE611" unicode="&#xe611;" 
d="M917 707h-815q-17 0 -28.5 -11.5t-11.5 -28.5v-592q0 -17 11.5 -28.5t28.5 -11.5h815q17 0 28.5 11.5t11.5 28.5v592q0 11 -5.5 20.5t-14.5 14.5t-20 5zM730 669h52v-61h-52v61zM880 584v-426h-741v426h741zM632 669h51v-61h-51v61zM533 669h51v-61h-51v61zM434 669h52
v-61h-52v61zM336 669h51v-61h-51v61zM237 669h52v-61h-52v61zM139 669h51v-61h-51v61zM190 73h-51v61h51v-61zM289 73h-52v61h52v-61zM387 73h-51v61h51v-61zM486 73h-52v61h52v-61zM584 73h-51v61h51v-61zM683 73h-51v61h51v-61zM782 73h-52v61h52v-61zM880 73h-51v61h51
v-61zM880 608h-51v61h51v-61zM498 519q-62 0 -105 -43.5t-43 -104.5t43 -104.5t105 -43.5q20 0 39 5t35.5 15t30 23.5t23 29.5t15 35.5t5.5 39.5q0 12 -2 24t-5.5 23t-9 21t-12 19.5t-15 17.5t-17.5 14.5t-19 12t-21 9t-23 5.5t-24 2zM432 288v166l166 -83z" />
    <glyph glyph-name="uniE612" unicode="&#xe612;" 
d="M295 709v-496q-13 3 -25 3q-59 0 -100.5 -40.5t-41.5 -98t41.5 -98t100.5 -40.5t101 40.5t42 97.5q0 11 -2 23v497l367 78v-384q-7 1 -13.5 1.5t-13.5 0.5q-59 0 -101 -40.5t-42 -97.5q0 -38 19 -69.5t52 -50t72 -18.5q55 0 95.5 35t46.5 88v692z" />
    <glyph glyph-name="uniE613" unicode="&#xe613;" 
d="M728 199q-23 0 -42.5 -11t-30.5 -30t-11 -41q0 -33 24.5 -57t59.5 -24t59.5 24t24.5 57q0 17 -6.5 32t-18 26t-27 17.5t-32.5 6.5zM452 199q-35 0 -59.5 -24t-24.5 -58q0 -13 4 -25.5t12 -22.5t18.5 -17.5t23 -11.5t26.5 -4t26.5 4t23 11.5t18.5 17.5t12 22.5t4 25.5
q0 34 -24.5 58t-59.5 24zM739 412h-314q-5 0 -9.5 -1t-9 -3t-8 -5t-6.5 -6.5t-5 -7.5t-3 -8.5t-1 -9.5q0 -16 12.5 -28t29.5 -12h314q18 0 30 12t12 28.5t-12 28.5t-30 12zM812 476.5q0 16.5 -12.5 28.5t-29.5 12h-368q-17 0 -29.5 -12t-12.5 -28q0 -11 6 -20.5t15.5 -15
t20.5 -5.5h368q17 0 29.5 12t12.5 28.5zM372 541h431q11 0 20.5 5.5t15.5 15t6 20.5q0 16 -12.5 28t-29.5 12h-431q-17 0 -29.5 -12t-12.5 -28q0 -11 5.5 -20.5t15.5 -15t21 -5.5zM924 677q-2 0 -4 0.5t-4 0.5h-5q-3 0 -6.5 -0.5t-6.5 -1t-6 -2t-6 -3.5l-4 -4q-3 -2 -5 -5
l-4 -4q-2 -3 -3.5 -6t-2.5 -6l-100 -342h-376l-111 396q-1 2 -1.5 4t-1.5 3.5t-1.5 3.5t-2 3.5t-2.5 3t-3 2.5l-2 4l-3 2q-12 9 -27 9h-131q-17 0 -29 -12t-12 -28.5t12 -28.5t29 -12h91l113 -401q1 -11 8 -20l3 -3l1 -1v-1l1 -1q16 -15 38 -12h433q2 -1 4 -1h4q5 0 9.5 1
t8.5 2.5t8 4t7 5.5q6 6 9 12.5t4 13.5l109 369q2 9 1 17.5t-5.5 16t-11.5 13t-16 8.5z" />
    <glyph glyph-name="uniE614" unicode="&#xe614;" 
d="M947 398q-14 45 -35.5 80t-46 54.5t-47 32.5t-45 18t-33.5 6.5t-19 1.5h-1h-9h-3q-2 0 -4.5 -0.5t-4.5 -0.5q15 -56 11 -114q-9 -135 -104 -225q-42 -40 -97 -61q19 -39 48 -69q38 -40 82.5 -54.5t85.5 -13.5l36 3q21 -60 55 -89.5t63 -29.5l23 3q-13 10 -24 21.5t-19 22
t-14.5 21.5t-10.5 20t-7 17.5t-4.5 14.5t-2 11.5t-1 7.5t-0.5 3q3 2 7 5t16 13.5t23.5 22t26.5 30t26.5 37.5t21.5 44t15 50.5t3.5 55.5t-11.5 61zM629 705q-20 28 -44 50t-48 35.5t-46 22.5t-43 13t-34.5 6t-25.5 2q-3 0 -6 -0.5t-4 -0.5h-1h-2q-8 1 -19.5 0t-35.5 -6
t-47 -13t-52.5 -25.5t-54 -41t-49 -61.5t-39.5 -84q-23 -69 -12.5 -127.5t38 -106t61 -80.5t56.5 -51t25 -18q0 -4 -1 -10.5t-7 -26t-16.5 -38.5t-32.5 -44.5t-53 -47.5q13 -3 31 -3q39 -1 83.5 35t72.5 107l47 -4q133 -1 222 82q87 83 99.5 206t-62.5 230zM264 330
q-15 -5 -28.5 7t-16.5 34q-2 11 -0.5 21.5t5 19t10 15t13.5 8.5q8 3 15.5 1t13.5 -7.5t10.5 -14.5t6.5 -20q2 -14 -1 -27.5t-10.5 -23.5t-17.5 -13zM398 330q-7 -2 -12.5 -1t-11 4.5t-10 8.5t-7.5 12.5t-5 16.5q-2 11 -0.5 21.5t5.5 19t10 15t14 8.5q15 5 28.5 -7t17 -33.5
t-5 -40.5t-23.5 -24zM531 330q-4 -1 -8.5 -1t-8.5 1.5t-7.5 4t-7 6t-6 8.5t-4.5 10.5t-3 11.5q-2 11 -0.5 21.5t5.5 19t10 15t14 8.5q7 3 14.5 1t13.5 -7.5t10.5 -14.5t6.5 -19.5t0.5 -21t-5.5 -19.5t-10 -15t-14 -9z" />
    <glyph glyph-name="uniE615" unicode="&#xe615;" 
d="M512 317q-21 13 -66.5 39.5t-65.5 39.5q-23 -30 -62 -95t-82.5 -138.5t-68.5 -110.5h708q-25 36 -72 109t-90 139.5t-66 96.5q-18 -11 -39.5 -25.5t-42.5 -29t-40 -25.5q-7 -5 -13 0zM106 613q60 -44 199 -134q25 -17 81.5 -50t81.5 -50q45 -29 46 -30q3 -2 5 -3
q48 30 135 84.5t159.5 99t141.5 83.5h-849zM671 411q30 -39 120 -180t119 -179h63v544q-20 -12 -42.5 -26t-44 -27t-42.5 -26t-43.5 -26.5t-42.5 -26t-44 -27t-43 -26.5zM356 411q-190 123 -277 180v-539h54q29 40 111.5 179.5t111.5 179.5z" />
    <glyph glyph-name="uniE616" unicode="&#xe616;" 
d="M511 750q-90 0 -173.5 -36t-143.5 -96t-95.5 -143.5t-35.5 -174.5t35.5 -174.5t95.5 -143.5t143.5 -96t174 -36t174 36t143.5 96t95.5 143.5t35.5 174.5q0 73 -22.5 141.5t-64 124t-96.5 97t-123.5 64.5t-142.5 23zM511 -106q-82 0 -156.5 32t-129 86.5t-86.5 129.5
t-32 157.5t32 158t86.5 129.5t129 86t156.5 32q110 0 203 -54t147.5 -147.5t54.5 -203.5q0 -158 -106 -274q-104 -114 -256 -130q-22 -2 -43 -2zM511 -106zM702 559l-139 -236h110v-53h-128v-72h128v-52h-128v-105h-66v105h-133v52h133v72h-133v53h113l-138 236h75
q96 -176 117 -223h1q8 19 39 78l79 145h70z" />
    <glyph glyph-name="uniE617" unicode="&#xe617;" 
d="M512 -32q-8 0 -15 3.5t-11 9.5l-65 91q-156 28 -256.5 133.5t-100.5 242.5q0 104 60 192.5t163.5 140t224.5 51.5q91 0 174 -30.5t143 -82t95.5 -122.5t35.5 -149q0 -137 -100.5 -242.5t-256.5 -133.5l-65 -91q-10 -13 -26 -13zM512 768q-159 0 -271.5 -94t-112.5 -226
q0 -76 40.5 -143.5t113 -112.5t162.5 -59q13 -2 21 -13l47 -65l47 65q2 4 5.5 6.5t7.5 4.5t8 2q137 21 226.5 110t89.5 205q0 132 -112.5 226t-271.5 94zM288.5 384q-26.5 0 -45.5 19t-19 45t19 45t45.5 19t45 -19t18.5 -45t-18.5 -45t-45 -19zM288 448v-32v32zM736 384
q-7 0 -14.5 1.5t-13.5 5t-12 7.5t-10 10t-7.5 12t-5 13.5t-1.5 14.5q0 26 19 45t45 19q10 0 20 -3t18 -9t14 -14t9 -18t3 -20q0 -26 -18.5 -45t-45.5 -19zM736 448v-32v32zM512.5 384q-26.5 0 -45.5 19t-19 45t19 45t45 19q10 0 20 -3t18 -9t14 -14t9 -18t3 -20
q0 -26 -18.5 -45t-45 -19zM512 448v-32v32z" />
    <glyph glyph-name="uniE618" unicode="&#xe618;" 
d="M512 831q-91 0 -174 -35.5t-142.5 -95t-95 -142.5t-35.5 -174t35.5 -174t95 -142.5t142.5 -95t174 -35.5t174 35.5t142.5 95t95 142.5t35.5 174q0 73 -22.5 141t-64 123t-96.5 96.5t-123 64t-141 22.5zM512 -16q-81 0 -155.5 31.5t-128 85t-85 128t-31.5 155.5
q0 109 53.5 201t145.5 145.5t201 53.5t201 -53.5t145.5 -145.5t53.5 -201t-53.5 -201t-145.5 -145.5t-201 -53.5zM623 386q-25 19 -86 35v160q11 -2 18.5 -4.5t14 -7t13.5 -10.5q20 -19 26 -58l47 9q-6 27 -13.5 43t-22.5 31q-29 30 -83 37l-1 46h-48l-1 -46
q-12 -1 -21.5 -3t-17.5 -5t-14.5 -6.5t-13.5 -8.5q-23 -16 -35.5 -40.5t-12.5 -55.5q0 -59 43 -88q26 -17 72 -28v-177q-19 3 -32 9t-23 18q-12 12 -17.5 27.5t-7.5 41.5l-47 -8q9 -61 37 -90q30 -30 90 -38l1 -68h48l1 67q10 1 17.5 2t14.5 2.5t13 3.5t11.5 4.5t10.5 5
t10 6.5q50 33 50 104q0 59 -41 90v0zM487 431q-19 4 -31 10q-20 11 -30 26.5t-10 36.5q0 18 7 33.5t19 25.5q17 13 45 18v-150zM589 228q-4 -4 -8.5 -6.5t-9 -4.5t-9.5 -3l-12 -4q-5 -1 -13 -2v167q42 -11 55 -21q27 -21 27 -59q0 -22 -8 -39t-22 -28zM589 228z" />
    <glyph glyph-name="uniE619" unicode="&#xe619;" 
d="M992 384q0 9 -1 11q-1 6 -2 11q-1 1 -1 2l-2 4q-66 145 -197 234.5t-277 89.5q-96 0 -189 -40.5t-167 -113.5t-118 -169q-1 -3 -2 -5q0 -2 -1 -2q0 -2 -1 -8l-2 -11v-6q1 -7 1 -8q0 -3 1 -7q1 -2 1.5 -3.5t0.5 -2.5q1 -1 1 -2t1 -2q44 -96 118 -169.5t167 -114t189 -40.5
q146 0 277 89t196 233q2 3 3 7q0 1 1 1l1 9h1v3q0 1 0.5 2.5t0.5 3.5v4zM512 224q-66 0 -113 47t-47 113t47 113t113 47t113 -47t47 -113t-47 -113t-113 -47z" />
    <glyph glyph-name="uniE61A" unicode="&#xe61a;" 
d="M992 384q0 9 -1 11q-1 6 -2 11q-1 1 -1 2l-2 4q-66 145 -197 234.5t-277 89.5q-96 0 -189 -40.5t-167 -113.5t-118 -169q-1 -3 -2 -5q0 -2 -1 -2q0 -2 -1 -8l-2 -11v-6q1 -7 1 -8q0 -3 1 -7q1 -2 1.5 -3.5t0.5 -2.5q1 -1 1 -2t1 -2q44 -96 118 -169.5t167 -114t189 -40.5
q146 0 277 89t196 233q2 3 3 7q0 1 1 1l1 9h1v3q0 1 0.5 2.5t0.5 3.5v4zM927 382v-1v-1q-59 -128 -173.5 -206t-241.5 -78q-84 0 -164.5 35.5t-146 100t-104.5 148.5v2h-1v1v1v1q0 1 1 2v1q59 128 173.5 206t241.5 78t241.5 -78t173.5 -206v-1q1 -3 1 -4zM512 544
q-66 0 -113 -47t-47 -113t47 -113t113 -47t113 47t47 113t-47 113t-113 47zM512 288q-40 0 -68 28t-28 68t28 68t68 28t68 -28t28 -68t-28 -68t-68 -28z" />
    <glyph glyph-name="uniE61B" unicode="&#xe61b;" 
d="M948 843h-872q-30 0 -51.5 -21.5t-21.5 -51.5v-587q0 -30 21.5 -51.5t51.5 -21.5h363v-110h-181q-10 0 -18.5 -5t-13.5 -13.5t-5 -18.5v-36h582v36q0 15 -10.5 26t-25.5 11h-182v110h363q20 0 37 9.5t26.5 26.5t9.5 37v587q0 30 -21 51.5t-52 21.5v0zM476 183
q0 10 5 18.5t13 13.5t18 5q15 0 26 -11t11 -26t-11 -26t-26 -11t-25.5 11t-10.5 26v0zM76 256v514h872v-514h-872zM76 256z" />
    <glyph glyph-name="uniE61C" unicode="&#xe61c;" 
d="M321 383q0 -80 56 -136t136 -56t136 56t56 136t-56 136t-136 56t-136 -56t-56 -136z" />
    <glyph glyph-name="uniE61D" unicode="&#xe61d;" 
d="M62 607h894l-447 -447zM62 607z" />
    <glyph glyph-name="uniE61E" unicode="&#xe61e;" 
d="M512 830q-61 0 -118.5 -16t-106.5 -45t-90 -70t-70 -90t-45 -106.5t-16 -118.5q0 -91 35.5 -173.5t95 -142t142 -95t173.5 -35.5t173.5 35.5t142 95t95 142t35.5 173.5t-35.5 173.5t-95 142t-142 95t-173.5 35.5zM512 2q-104 0 -192 51t-139 139t-51 192t51 192t139 139
t192 51q78 0 148.5 -30.5t121.5 -81.5t81.5 -121.5t30.5 -148.5q0 -104 -51 -192t-139 -139t-192 -51zM512 544q-66 0 -113 -47t-47 -113t47 -113t113 -47t113 47t47 113t-47 113t-113 47z" />
    <glyph glyph-name="uniE61F" unicode="&#xe61f;" 
d="M512 -64q-185 0 -316.5 131.5t-131.5 316.5t131.5 316.5t316.5 131.5t316.5 -131.5t131.5 -316.5t-131.5 -316.5t-316.5 -131.5zM512 768q-159 0 -271.5 -112.5t-112.5 -271.5t112.5 -271.5t271.5 -112.5t271.5 112.5t112.5 271.5t-112.5 271.5t-271.5 112.5zM696 440
q-10 10 -23 9.5t-23 -9.5l-136 -139l-136 137q-6 6 -14 8.5t-16.5 0t-14.5 -8.5q-10 -9 -10 -22.5t10 -22.5l158 -160q9 -10 23 -10q7 1 12 3h1q1 1 1 2h1q5 3 7 5h1l159 162q6 6 8 14.5t0 16.5t-8 14z" />
    <glyph glyph-name="uniE620" unicode="&#xe620;" 
d="M918 581l-246 242q-3 3 -7 5t-8 3t-8 1q-3 0 -6.5 -0.5t-6 -1.5t-5.5 -3t-5 -4l-459 -471q-2 -2 -4 -4.5t-3 -5.5l-2 -6l-61 -331q-2 -8 0.5 -15.5t8.5 -13.5q9 -9 22 -9q4 0 7 1l292 65q10 2 16 9l476 494q6 6 8 14.5t0 16.5t-9 14zM428.5 92.5q-2.5 -2.5 -5.5 -4
t-5.5 -3t-6 -2t-6.5 -0.5q-13 1 -22 9l-182 171q-10 9 -10 22.5t9 23t22 10t23 -8.5l182 -172q18 -17 6 -39q-2 -4 -4.5 -6.5z" />
    <glyph glyph-name="uniE621" unicode="&#xe621;" 
d="M920 581l-247 242q-9 9 -23 9q-13 0 -22 -9l-459 -471q-2 -1 -3 -2l-2 -4q-1 -1 -2 -3t-1.5 -3.5t-0.5 -3.5l-62 -331q-1 -5 0 -10.5t3 -10t6 -8.5q9 -9 22 -9q4 0 7 1l293 65q9 2 16 9l476 494q17 18 3 40q-2 3 -4 5zM434 123l-123 121q-9 10 -22.5 10t-22.5 -9.5
t-9 -23t9 -22.5l113 -111l-209 -47l51 273l430 441l201 -197z" />
    <glyph glyph-name="uniE622" unicode="&#xe622;" 
d="M863 413l-317 2v318q0 13 -9.5 22.5t-22.5 9.5t-22.5 -9.5t-9.5 -22.5v-318l-322 1q-9 0 -16.5 -4.5t-11.5 -11.5t-4 -16q-1 -13 8.5 -22.5t22.5 -9.5l323 -1v-319q0 -14 9.5 -23t22.5 -9t22.5 9t9.5 23v319l317 -2q9 0 16.5 4.5t11.5 12t4 15.5q0 14 -9 23t-23 9z" />
    <glyph glyph-name="uniE623" unicode="&#xe623;" 
d="M864 352h-701q-13 0 -22.5 9.5t-9.5 22.5t9.5 22.5t22.5 9.5h701q13 0 22.5 -9.5t9.5 -22.5q0 -7 -2.5 -12.5t-7 -10t-10.5 -7t-12 -2.5z" />
    <glyph glyph-name="uniE624" unicode="&#xe624;" 
d="M788 -46h-552q-9 0 -19 -10.5t-15 -20.5l-5 -10v-41h630v41q0 17 -11.5 29t-27.5 12v0zM906 896h-788q-49 0 -83.5 -36t-34.5 -87v-573q0 -11 2 -22t5.5 -21t8.5 -19.5t11.5 -17t14.5 -14.5t16.5 -12.5t18 -9t20 -5.5t21.5 -2h276v-41q0 -17 11.5 -29t27.5 -12h158
q16 0 27.5 12.5t11.5 28.5v41h276q49 0 83.5 36t34.5 87v573q0 51 -34.5 87t-83.5 36v0zM118 241q-11 0 -20 5.5t-14 14.5t-5 21v491q0 17 11.5 29t27.5 12h788q16 0 27.5 -12t11.5 -29v-491q0 -17 -11.5 -29t-27.5 -12h-788zM799 711l-129 -135l-91 94q-13 14 -33 11
q-9 -1 -16.5 -6.5t-12.5 -13.5l-117 -213l-48 126q-8 20 -29 25q-10 2 -19.5 -1t-16.5 -10l-118 -123q-11 -12 -11 -29t11 -29q8 -8 18 -11t20 0t18 11l76 79l56 -147q9 -24 34 -26h3q23 0 34 21l132 240l82 -85q5 -6 12.5 -9t15 -3t15 3t12.5 9l158 164q11 12 11 28.5
t-11.5 29t-27.5 12.5t-28 -12v0z" />
    <glyph glyph-name="uniE625" unicode="&#xe625;" 
d="M938 0q-8 0 -14 6t-6 15v464q0 75 -29.5 143t-78.5 117.5t-117.5 78.5t-143.5 29h-76q-75 0 -143 -29t-117.5 -78.5t-78.5 -117.5t-29 -143v-464q0 -9 -6 -15t-15 -6q-8 0 -14 6t-6 15v464q0 27 3.5 54t10.5 53.5t18 51.5q31 73 88 130t130 88q76 32 159 32h76
q14 0 27.5 -1t27 -2.5t27 -4.5t26.5 -6.5t26 -8t25 -9.5q25 -10 47.5 -23.5t43.5 -29.5t40 -35q28 -28 50 -61t37 -69q11 -25 18.5 -51.5t11 -53.5t3.5 -54v-464q0 -6 -3 -10.5t-7.5 -7.5t-10.5 -3zM32 21q-11 0 -19 8t-8 19v167q0 11 8 19t19 8t19 -8t8 -19v-167
q0 -11 -8 -19t-19 -8zM991 21q-11 0 -19 8t-8 19v167q0 11 8 19t19 8t19 -8t8 -19v-167q0 -11 -8 -19t-19 -8zM197 -107q-36 0 -62 25.5t-26 62.5v255q0 36 26 61.5t62 25.5t62 -25.5t26 -61.5v-255q0 -37 -26 -62.5t-62 -25.5zM825 -107q-36 0 -61.5 25.5t-25.5 62.5v255
q0 36 25.5 61.5t61.5 25.5t62 -25.5t26 -61.5v-255q0 -37 -26 -62.5t-62 -25.5z" />
    <glyph glyph-name="uniE626" unicode="&#xe626;" 
d="M64 753v-191h893v191h-893zM257 609q-6 0 -12.5 1.5t-12 4.5t-10 7.5t-7.5 10t-5 12t-2 12.5q0 21 14.5 35t35 14t34.5 -14t14 -34.5t-14 -34.5t-35 -14zM885 609h-375v97h375v-97zM64 294h893v191h-893v-191zM418 438h467v-97h-467v97zM257 438q21 0 35 -14t14 -34.5
t-14 -34.5t-34.5 -14t-35 14t-14.5 34.5t14.5 34.5t34.5 14zM64 15h893v191h-893v-191zM636 159h249v-97h-249v97zM257 159q8 0 15.5 -2.5t13.5 -7t10.5 -10.5t7 -13t2.5 -15q0 -7 -1.5 -13.5t-4.5 -11.5t-7.5 -9.5t-10 -8t-12 -5t-13.5 -1.5q-20 0 -34.5 14t-14.5 35
q0 13 7 24t18 17.5t24 6.5zM257 159z" />
    <glyph glyph-name="uniE627" unicode="&#xe627;" 
d="M512 565l-113 184h-225l-113 -184l113 -185h225zM622 380h226l112 185l-112 184h-226l-112 -184zM623 381l113 -184l-113 -185h-225l-113 185l113 184h225zM399 380zM512 565zM622 380z" />
    <glyph glyph-name="uniE628" unicode="&#xe628;" 
d="M919 279h-518v113h518v-113zM950 412q0 6 -3.5 10.5t-9.5 4.5h-554q-5 0 -8.5 -4.5t-3.5 -10.5v-153q0 -3 1.5 -6.5t4.5 -5.5t6 -2h554q4 0 6.5 2t4.5 5.5t2 6.5v153zM812 528q-26 100 -108 164.5t-188 64.5q-104 0 -185 -62t-109 -160q-74 -11 -123.5 -68t-49.5 -133
q0 -77 50 -134t125 -68h44q12 0 20.5 9t8.5 21q0 6 -2 11t-6 9t-9.5 6.5t-11.5 2.5h-44q-24 5 -46 18t-37.5 32t-24.5 43t-9 50q0 60 43 103t103 43q4 0 8 -0.5t9 -0.5q10 93 80.5 156.5t165.5 63.5q42 0 81.5 -14t70.5 -38t54 -58t33 -73h1q2 -10 9.5 -16.5t18.5 -6.5
q12 0 20 8.5t8 20.5v3v3v0zM919 279h-518v113h518v-113zM950 412q0 6 -3.5 10.5t-9.5 4.5h-554q-5 0 -8.5 -4.5t-3.5 -10.5v-153q0 -3 1.5 -6.5t4.5 -5.5t6 -2h554q4 0 6.5 2t4.5 5.5t2 6.5v153zM918 57h-518v113h518v-113zM949 190q0 4 -2 7.5t-4.5 5.5t-6.5 2h-554
q-5 0 -8.5 -4.5t-3.5 -10.5v-153q0 -4 1.5 -7t4.5 -5t6 -2h554q5 0 9 4t4 10v153z" />
    <glyph glyph-name="uniE629" unicode="&#xe629;" 
d="M713 566.5q0 -53.5 -26.5 -99t-72 -72t-99.5 -26.5q-82 0 -140 58t-58 139.5t58 139.5t140 58q54 0 99.5 -26.5t72 -72t26.5 -99zM515 708q-58 0 -99.5 -41.5t-41.5 -100t41.5 -100t100 -41.5t100 41.5t41.5 99.5q0 29 -11.5 55.5t-30.5 45.5t-45 30t-55 11zM950 141
q0 -82 -57.5 -140t-139.5 -58t-140 58t-58 140q0 54 26.5 99.5t72 72t99 26.5t99.5 -26.5t72 -72t26 -99.5zM753 282q-59 0 -100.5 -41.5t-41.5 -100t41.5 -100t100 -41.5t100 41.5t41.5 100.5q0 16 -3.5 32t-10.5 30t-17 26.5t-22 22t-26 16.5t-30 10.5t-32 3.5zM472 141
q0 -40 -16 -77t-42.5 -63.5t-63 -42t-76.5 -15.5q-82 0 -140 58t-58 140q0 54 26.5 99.5t72 72t99.5 26.5q82 0 140 -58t58 -140zM274 282q-39 0 -71.5 -19t-51.5 -51.5t-19 -70.5q0 -59 41.5 -100.5t100.5 -41.5q38 0 70.5 19t51.5 51.5t19 71.5q0 16 -3.5 32t-10.5 30
t-16.5 26.5t-22 22t-26.5 16.5t-30 10.5t-32 3.5zM436 449l24 -15l-102 -166l-24 14zM605 159v-27h-183v28zM605 159v-27h-183v28zM688 287l-23 -14l-94 157l23 14zM688 287l-23 -14l-94 157l23 14z" />
    <glyph glyph-name="uniE62A" unicode="&#xe62a;" 
d="M104 264q0 -95 46.5 -175t126.5 -127t175 -47h121q95 0 175 47t126.5 127t46.5 175v179q0 41 -9 80t-26 73.5t-41 64.5t-54 54t-64.5 41t-73.5 26.5t-80 9.5h-121q-71 0 -135.5 -28t-111 -74.5t-74 -111t-27.5 -135.5v-179zM104 264q0 -95 46.5 -175t126.5 -127t175 -47
h121q95 0 175 47t126.5 127t46.5 175v179q0 41 -9 80t-26 73.5t-41 64.5t-54 54t-64.5 41t-73.5 26.5t-80 9.5h-121q-71 0 -135.5 -28t-111 -74.5t-74 -111t-27.5 -135.5v-179z" />
    <glyph glyph-name="uniE62B" unicode="&#xe62b;" 
d="M405 379l-217 -1l-110 188l107 189l218 1l110 -188zM473 567l-89 153l-178 -1l-87 -154l89 -153l178 1zM625 4l-217 -1l-110 187l107 189l218 2l110 -188zM693 192l-89 153l-178 -1l-87 -154l89 -153l178 1zM841 381l-218 -1l-110 188l108 189l217 1l110 -188zM909 569
l-90 153l-177 -1l-88 -154l90 -153l177 1z" />
    <glyph glyph-name="uniE62C" unicode="&#xe62c;" 
d="M357 817q14 0 27 -3.5t24.5 -10t21.5 -16.5q30 -30 30 -73v-176q0 -43 -30 -73t-73 -30h-176q-43 0 -73 30t-30 73v176q0 43 30 73t73 30h176zM843 817q11 0 21 -2t19 -6t17 -9.5t16 -12.5q30 -30 30 -73v-176q0 -43 -30 -73t-73 -30h-179q-43 0 -73 30t-30 73v176
q0 43 30 73t73 30h179zM357 334q21 0 39.5 -7.5t33.5 -22.5q30 -30 30 -74v-175q0 -43 -30 -73t-73 -30h-176q-43 0 -73 30t-30 73v175q0 44 30 74t73 30h176zM843 334q14 0 27 -3.5t24.5 -10t21.5 -16.5q30 -30 30 -74v-175q0 -43 -30 -73t-73 -30h-179q-43 0 -73 30
t-30 73v175q0 22 7.5 40.5t22.5 33.5q30 30 73 30h179z" />
    <glyph glyph-name="uniE62D" unicode="&#xe62d;" 
d="M708 775q51 19 97.5 -4t61.5 -66q12 -4 23 -10t21 -14.5t18.5 -18.5t14.5 -22t9 -26t3 -29q0 -18 -3.5 -34t-11 -29t-17.5 -24t-23 -19.5t-28 -14t-32 -7.5q-16 -36 -46.5 -57.5t-75.5 -18.5q-13 1 -24.5 5t-24.5 11q-43 -39 -99 -36q-26 2 -49 13.5t-39 29t-25 40.5
q-51 11 -81.5 48.5t-26.5 94.5q6 81 89 114q12 54 47.5 89.5t91.5 39.5q29 2 54.5 -5.5t42 -19.5t33.5 -30v0zM582 761q-39 -4 -60.5 -36.5t-16.5 -81.5q-41 0 -65.5 -20.5t-20.5 -56.5q3 -31 29.5 -46t63.5 -8q9 -78 63 -82q19 -1 33.5 8.5t21 19t16.5 28.5q9 17 13 24
q7 -6 16 -19t15.5 -22t19 -15t27.5 -4q26 3 35 25t11 60q5 -1 24 -6t32 -3q14 2 25 10.5t17 21t6 26.5q0 29 -21 44.5t-55 15.5q0 23 -11.5 42t-30.5 26t-43 -3q-6 -3 -13 -9t-14.5 -12t-14.5 -9l-12 25q-5 9 -14.5 22.5t-19 20.5t-24.5 11.5t-32 2.5v0zM68 182v2
q39 100 71 189q32 85 35 96q16 47 44.5 72.5t81.5 20.5q13 -120 123 -161q39 -62 103 -83q31 -8 62 -6.5t57 11.5q2 1 4.5 2.5t5.5 3t6.5 3t6 3t5.5 2.5t4 1q3 0 6.5 -1t7 -2.5t6.5 -1.5q27 -7 54 -2t46 13t37 20q7 -24 18.5 -58t21.5 -66l20 -58q-12 8 -23.5 14.5t-25.5 11
t-30 7.5q-15 2 -32 2.5t-42.5 0t-35.5 -0.5h-448h-23q-13 0 -23 0.5t-21.5 0.5t-22 -1t-20.5 -2q-22 -4 -41 -12t-38 -21v0zM802 -58h-642q-40 8 -63.5 32t-28.5 65v48q5 55 52 82q7 5 16 7.5t16.5 4t20.5 2.5t19 1h24h23h537q131 0 118 -151q-2 -23 -15 -43t-33 -32
t-44 -16v0zM693 39q11 -20 35.5 -25.5t43.5 10.5q11 9 15.5 22t1.5 25t-10.5 22.5t-20 16t-26.5 3.5q-25 -4 -38.5 -26.5t-0.5 -47.5v0zM693 39z" />
    <glyph glyph-name="uniE62E" unicode="&#xe62e;" 
d="M838 -33h-651q-39 0 -66 27.5t-27 65.5v652q0 25 12 46.5t33.5 34t47.5 12.5h651q15 0 29.5 -5t25.5 -13.5t20 -20t13.5 -25.5t4.5 -29v-652q0 -38 -27.5 -65.5t-65.5 -27.5zM396 572h-93v-372h93v372zM745 526q0 19 -13.5 32.5t-33.5 13.5h-209v-372h93v140h116
q13 0 24 6t17 16.5t6 23.5v140zM582 502h93v-93h-93v93zM582 502z" />
    <glyph glyph-name="uniE62F" unicode="&#xe62f;" 
d="M510 812q-115 0 -213 -57t-155.5 -155t-57.5 -213.5t57.5 -214t155.5 -155.5t213.5 -57t213.5 57t155 155.5t57 213.5q0 87 -33.5 165.5t-90.5 136t-136 91t-166 33.5zM764 570h-83q-11 25 -25 50.5t-31 49.5q-2 3 -4 5.5t-4 4.5q90 -33 147 -110v0zM539 570v118
q21 -25 42 -54.5t38 -63.5h-80zM643 513q8 -24 13 -48.5t7 -50.5h-124v99h104zM482 688v-118h-80q17 34 40 66q18 27 40 52zM482 513v-99h-124q3 50 20 99h104zM301 414h-102q4 52 25 99h95q-5 -16 -8.5 -32.5t-6 -33t-3.5 -33.5zM301 358q3 -50 18 -99h-95q-21 47 -25 99
h102zM358 358h124v-99h-104q-17 49 -20 99v0zM482 203v-119q-22 25 -40 52q-6 8 -11.5 16.5t-10.5 16.5t-9.5 16.5t-8.5 17.5h80zM539 84v119h80q-8 -17 -18 -34t-22 -33q-5 -7 -10 -14.5t-10.5 -13.5t-10 -12t-9.5 -12zM539 259v99h124q-1 -17 -3.5 -33.5t-7 -33
t-9.5 -32.5h-104zM720 358h102q-5 -52 -26 -99h-94q15 49 18 99zM720 414q-2 25 -6.5 50t-11.5 49h94q11 -23 17.5 -48t8.5 -51h-102zM403 680q-3 -5 -7 -10q-11 -16 -21 -32.5t-19 -33.5t-17 -34h-82q57 77 146 110v0zM257 203h82q5 -11 10 -21t10.5 -20t11.5 -20l12 -20
q6 -10 13 -20q4 -5 7 -10q-89 33 -146 111v0zM617 92l8 10q11 16 21 33t19 33.5t16 34.5h83q-57 -78 -147 -111v0zM617 92z" />
    <glyph glyph-name="uniE630" unicode="&#xe630;" 
d="M955 77l-24 213q0 29 -21 50t-51 21h-38v427q0 11 -8 19t-19.5 8t-19.5 -8t-8 -19v-427h-220v427q0 7 -4 13.5t-10 10t-14 3.5q-11 0 -19 -8t-8 -19v-427h-221v427q0 7 -3.5 13.5t-10 10t-13.5 3.5q-12 0 -20 -8t-8 -19v-427h-55q-19 0 -35.5 -9.5t-26.5 -26t-10 -35.5
l-24 -230v-4v-2v-21q0 -30 21 -51t51 -21h751q30 0 51 21t21 51v21q0 12 -4 23v0zM887 16h-751q-7 0 -12 5t-5 12v21q0 7 5 12t12 5h751q3 0 5.5 -1t4.5 -2.5t3.5 -3.5t2.5 -4.5t1 -5.5v-21q0 -3 -1.5 -6.5t-3.5 -5.5t-5.5 -3.5t-6.5 -1.5zM887 16z" />
    <glyph glyph-name="uniE631" unicode="&#xe631;" 
d="M450 -39v823l-386 -823h386zM571 784v-823h387zM499 276h24v-97h-24v97zM499 131h24v-97h-24v97zM499 -14h24v-97h-24v97zM499 566h24v-97h-24v97zM499 856h24v-97h-24v97zM499 711h24v-97h-24v97zM499 421h24v-97h-24v97zM499 421z" />
    <glyph glyph-name="uniE632" unicode="&#xe632;" 
d="M883 6h-744q-31 0 -53 21.5t-22 52.5v447q0 31 22 52.5t53 21.5h149v75q0 31 21.5 52.5t52.5 21.5h298q31 0 52.5 -21.5t21.5 -52.5v-75h149q31 0 52.5 -21.5t21.5 -52.5v-447q0 -12 -3.5 -23.5t-10.5 -20.5t-16 -16t-20.5 -10.5t-23.5 -3.5v0zM176 527q-10 0 -18.5 -5
t-13.5 -13.5t-5 -18.5q0 -16 10.5 -27t26 -11t26.5 11t11 27q0 6 -2 11.5t-5.5 10t-8 8t-10 5.5t-11.5 2v0zM556 527h-84q-78 -15 -130.5 -77t-52.5 -144q0 -94 66 -159.5t159.5 -65.5t159.5 65.5t66 159.5q0 82 -52.5 144t-131.5 77v0zM505 190q-30 0 -56 15t-41 41t-15 57
q0 46 33 79t79 33q23 0 44 -9t36 -24t24 -35.5t9 -43.5q0 -47 -33 -80t-80 -33v0zM505 190z" />
    <glyph glyph-name="uniE633" unicode="&#xe633;" 
d="M511 654q-4 0 -7 -1t-6 -2.5t-5.5 -3.5t-4.5 -4.5t-3.5 -5.5t-2.5 -6t-1 -7v-296q0 -7 2.5 -12t6.5 -9t9.5 -6.5t11.5 -2.5q12 0 20.5 8.5t8.5 21.5v296q0 8 -3.5 15t-10.5 11t-15 4zM511 832q-91 0 -173.5 -35t-142 -95t-94.5 -142.5t-35 -173t35 -173t94.5 -142
t142 -94.5t173.5 -35q60 0 118 16t106.5 44.5t90 69.5t70 90t44.5 106.5t16 118.5q0 40 -7 79.5t-21 75.5t-33 69.5t-44 62.5t-53.5 53.5t-62 44t-69.5 33t-75.5 20.5t-79.5 7zM511 1q-79 0 -150.5 30.5t-123 82.5t-82 123t-30.5 150q0 105 51.5 193.5t140.5 140.5t194 52
t193.5 -52t140.5 -140.5t52 -193.5t-52 -194t-140.5 -140.5t-193.5 -51.5zM511 238q-5 0 -9.5 -1t-8 -4t-6.5 -6.5t-4.5 -8t-1.5 -9.5q0 -12 9 -21t21 -9q5 0 9.5 1.5t8 4.5t6 6.5t4 8t1.5 9.5q0 29 -29 29zM511 238z" />
    <glyph glyph-name="uniE634" unicode="&#xe634;" 
d="M511 654q-4 0 -7 -1t-6 -2.5t-5.5 -3.5t-4.5 -4.5t-3.5 -5.5t-2.5 -6t-1 -7v-296q0 -7 2.5 -12t6.5 -9t9.5 -6.5t11.5 -2.5q12 0 20.5 8.5t8.5 21.5v296q0 8 -3.5 15t-10.5 11t-15 4zM511 832q-91 0 -173.5 -35t-142 -95t-94.5 -142.5t-35 -173t35 -173t94.5 -142
t142 -94.5t173.5 -35q60 0 118 16t106.5 44.5t90 69.5t70 90t44.5 106.5t16 118.5q0 40 -7 79.5t-21 75.5t-33 69.5t-44 62.5t-53.5 53.5t-62 44t-69.5 33t-75.5 20.5t-79.5 7zM511 1q-79 0 -150.5 30.5t-123 82.5t-82 123t-30.5 150q0 105 51.5 193.5t140.5 140.5t194 52
t193.5 -52t140.5 -140.5t52 -193.5t-52 -194t-140.5 -140.5t-193.5 -51.5zM511 238q-5 0 -9.5 -1t-8 -4t-6.5 -6.5t-4.5 -8t-1.5 -9.5q0 -12 9 -21t21 -9q5 0 9.5 1.5t8 4.5t6 6.5t4 8t1.5 9.5q0 29 -29 29zM511 238z" />
    <glyph glyph-name="uniE635" unicode="&#xe635;" 
d="M512 831q-91 0 -173.5 -35.5t-142.5 -95.5t-95.5 -142.5t-35.5 -173.5t35.5 -173.5t95.5 -142.5t142.5 -95.5t173.5 -35.5t173.5 35.5t142.5 95.5t95.5 142.5t35.5 173.5t-35.5 173.5t-95.5 142.5t-142.5 95.5t-173.5 35.5zM512 -37q-114 0 -211 56.5t-153.5 153.5
t-56.5 211t56.5 211t153.5 153.5t211 56.5q86 0 163.5 -33.5t134 -90t90 -134t33.5 -163.5q0 -114 -56.5 -211t-153.5 -153.5t-211 -56.5zM512 149l-235 235l235 235l235 -235z" />
    <glyph glyph-name="uniE636" unicode="&#xe636;" 
d="M65 832v-892h892v892h-892zM767 508l-293 -296v0q-2 -2 -8 -5l-2 -2q-1 -1 -2 -1l-14 -3q-2 0 -4.5 0.5t-4.5 1t-4 1.5q-1 0 -3 2q-1 0 -1 1q-7 3 -8 5h-1l-144 149q-10 10 -10 25.5t11 25.5q5 5 12 8t14 3t13.5 -3t12.5 -8l118 -122l266 270q11 11 26 11t26 -11t11 -26
t-11 -26z" />
    <glyph glyph-name="uniE637" unicode="&#xe637;" 
d="M767 508l-293 -296v0q-2 -2 -8 -5l-2 -2q-1 -1 -2 -1l-14 -3q-2 0 -4.5 0.5t-4.5 1t-4 1.5q-1 0 -3 2q-1 0 -1 1q-7 3 -8 5h-1l-144 149q-10 10 -10 25.5t11 25.5q5 5 12 8t14 3t13.5 -3t12.5 -8l118 -122l266 270q11 11 26 11t26 -11t11 -26t-11 -26z" />
    <glyph glyph-name="uniE638" unicode="&#xe638;" 
d="M575 -60q-15 -1 -32 -1.5t-30.5 -0.5t-25.5 0.5t-18 0.5l-7 1l-58 6q-169 30 -226 138q-25 49 -25 109q0 51 16.5 100.5t42.5 88.5t58 74.5t63.5 60.5t58.5 44t42.5 28.5t16.5 9.5h136q6 -4 16.5 -11.5t39.5 -31.5t56 -49.5t59.5 -64t56 -76.5t39.5 -85t16 -92t-16 -83
t-42 -63t-57.5 -45t-63.5 -30.5t-58 -17.5t-42 -9t-16 -1v0zM451 615v48h137v-48h-137zM585 679h-132l-70 159q41 -32 66.5 -32t69.5 33q2 -2 5 -4t11 -7.5t16 -10t17.5 -8t16.5 -3.5q6 0 12.5 1.5t13 4.5t13 7t12 7.5t10 6.5t6.5 5l3 2zM478 80h62v60h82v48h-82v26h82v49
h-58l69 138h-67l-45 -93q-4 -8 -7 -16t-5 -15q-3 13 -12 31l-44 93h-67l68 -138h-57v-49h81v-26h-81v-48h81v-60zM478 80z" />
    <glyph glyph-name="uniE639" unicode="&#xe639;" 
d="M647 529.5q0 54.5 -38.5 93.5t-94 39t-94.5 -39t-39 -93q0 -27 11 -51.5t28.5 -42t42 -28t51.5 -10.5q56 0 94.5 38.5t38.5 93zM514.5 833q-90.5 0 -173 -35.5t-142.5 -95t-95 -142t-35 -173.5t35 -173.5t95 -142t142.5 -95t173 -35.5t173 35.5t142.5 95t95 142t35 173.5
t-35 173.5t-95 142t-142.5 95t-173 35.5zM727 134q0 88 -62 149.5t-150.5 61.5t-150.5 -61.5t-62 -149.5h-53q0 54 20.5 102.5t57 84.5t83.5 56q-25 16 -43 39.5t-28.5 52.5t-10.5 61q0 37 15 71.5t40 59t59.5 39t72 14.5t72 -14.5t59.5 -39t40 -59t15 -71.5
q0 -47 -22.5 -87.5t-59.5 -65.5q72 -31 116.5 -96.5t44.5 -146.5h-53z" />
    <glyph glyph-name="uniE63A" unicode="&#xe63a;" 
d="M511 745q-91 0 -173.5 -35t-142.5 -95t-95.5 -142.5t-35.5 -173.5t35.5 -173.5t95.5 -142.5t142.5 -95.5t173.5 -35.5q72 0 140 23t123 64t96.5 96t64 123t22.5 141q0 91 -35.5 173.5t-95 142.5t-142.5 95t-173 35zM815 406l-334 -338h-1v-1q-2 -2 -7 -5l-2 -1l-2 -1
l-2 -2q-8 -3 -16 -3t-16 4q-1 0 -2.5 1t-1.5 2q-7 4 -9 5v1h-1l-164 169q-11 14 -5.5 34.5t19.5 33.5q13 13 34 15.5t34 -8.5l113 -111l275 284q6 6 15.5 8.5t20 1.5t20 -4.5t15.5 -9.5q14 -14 21 -38t-4 -37z" />
    <glyph glyph-name="uniE63B" unicode="&#xe63b;" 
d="M438 890q-117 0 -216.5 -58t-157.5 -157.5t-58 -216.5t58 -216.5t157.5 -157.5t216.5 -58q88 0 168 34.5t137.5 92t92 137.5t34.5 168q0 58 -15.5 114t-43.5 103.5t-68 87.5t-87 68t-103 43.5t-115 15.5zM438.5 84q-101.5 0 -188 50t-136.5 136t-50 188q0 76 30 145
t80 119t119 80t145 30q102 0 188 -50t136 -136.5t50 -188t-50 -187.5t-136 -136t-187.5 -50zM1009 -72l-151 146q-8 8 -20.5 8t-20.5 -8q-8 -9 -8 -21t9 -20l151 -147q4 -3 9 -5.5t11 -2.5q12 0 21 9q1 2 2.5 4t2.5 4t1.5 4t1 4.5t0.5 4.5t-0.5 4t-1.5 4.5t-2 4.5t-2 3.5
t-3 3.5z" />
    <glyph glyph-name="uniE63C" unicode="&#xe63c;" horiz-adv-x="1366" 
d="M98 702h-1h1zM1118 150l-258 211l247 207q18 4 18 22q0 6 -3 11v2h-2q-7 10 -18 10q-6 0 -11 -3t-8 -8l-400 -340l-402 341q-7 10 -19 10q-5 0 -10 -2.5t-8 -7.5v0q-3 -5 -3 -11t3 -11v-2l2 -1q2 -3 6 -5l254 -212l-259 -212q-14 -5 -14 -21q0 -9 6.5 -15.5t16.5 -6.5
q12 0 19 11l261 218l147 -122l146 122l263 -219q7 -9 18 -9q9 0 15.5 6.5t6.5 15.5q-1 15 -14 21zM1268 896h-1170q-16 0 -31 -5t-27 -14t-21 -21t-14 -27t-5 -31v-828q0 -41 28.5 -69.5t69.5 -28.5h1170q40 0 68.5 28.5t28.5 69.5v828q0 41 -28.5 69.5t-68.5 28.5z
M1317 -30q0 -10 -4 -19t-10.5 -16t-15.5 -10.5t-19 -3.5h-1170q-21 0 -35 14t-14 35v828q0 21 14 35t35 14h1170q13 0 24.5 -6.5t18 -17.5t6.5 -25v-828z" />
    <glyph glyph-name="uniE63D" unicode="&#xe63d;" horiz-adv-x="1365" 
d="M89 718zM1024 212l-236 194l226 189q16 4 16 20q0 3 -0.5 5.5t-2.5 5.5v2h-1q-2 3 -4.5 4.5t-5.5 2.5t-7 1h-4l-4 -2q-2 0 -3.5 -1.5t-3 -2.5t-2.5 -3l-367 -312l-367 313h-1q-6 9 -16.5 9t-16.5 -9h-1v-1q-2 -4 -2 -10v-3q0 -2 0.5 -3.5t1.5 -3.5v-1l2 -1l6 -5l232 -194
l-237 -194q-3 -2 -6 -4.5t-4.5 -6.5t-1.5 -8q0 -9 6 -15t14 -6q12 0 18 10l239 200l134 -112l134 112l241 -201h1q1 -2 3 -3.5t4 -2.5t4.5 -1.5t4.5 -0.5q8 0 14 6t6 14q0 14 -13 19zM1161 896h-1072q-37 0 -63 -26t-26 -63v-760q0 -37 26 -63t63 -26h1072q37 0 63.5 26
t26.5 63v760q0 37 -26.5 63t-63.5 26zM1206 47q0 -12 -6 -22.5t-16 -16t-23 -5.5h-1072q-12 0 -22 5.5t-16 16t-6 22.5v760q0 9 3.5 17t9.5 14t14 9.5t17 3.5h1072q13 0 23 -6t16 -16t6 -22v-760zM1103 396q-109 0 -185.5 -77t-76.5 -185.5t76.5 -185t185 -76.5t185 76.5
t76.5 185t-76.5 185.5t-184.5 77zM1121 2q0 -7 -5.5 -12.5t-12.5 -5.5q-6 0 -10 2.5t-6.5 6.5t-2.5 9v169q0 8 5.5 13.5t13.5 5.5q5 0 9 -2.5t6.5 -7t2.5 -9.5v-169zM1103 228q-8 0 -14.5 3.5t-10.5 10t-4 14.5q0 11 8.5 19.5t20.5 8.5q7 0 13.5 -4t10.5 -10.5t4 -14t-4 -14
t-10.5 -10t-13.5 -3.5zM1103 228z" />
    <glyph glyph-name="uniE63E" unicode="&#xe63e;" 
d="M512 845q63 0 122.5 -16.5t110 -46.5t93 -72.5t72.5 -93t46.5 -110t16.5 -122.5t-16.5 -122.5t-46.5 -110t-72.5 -93t-93 -72.5t-110 -46.5t-122.5 -16.5q-94 0 -179 36.5t-147 98.5t-98.5 147t-36.5 179t36.5 179t98.5 147t147 98.5t179 36.5zM512 896
q-139 0 -257 -68.5t-186.5 -186.5t-68.5 -257t68.5 -257t186.5 -186.5t257 -68.5t257 68.5t186.5 186.5t68.5 257t-68.5 257t-186.5 186.5t-257 68.5zM631 461l-128 -77l-128 77v153l128 77l128 -77v-153zM477 205l-128 -77l-128 77v154l128 76l128 -76v-154zM784 205
l-128 -77l-128 77v154l128 76l128 -76v-154z" />
    <glyph glyph-name="uniE63F" unicode="&#xe63f;" 
d="M512 845q63 0 122.5 -16.5t110 -46.5t93 -72.5t72.5 -93t46.5 -110t16.5 -122.5t-16.5 -122.5t-46.5 -110t-72.5 -93t-93 -72.5t-110 -46.5t-122.5 -16.5q-94 0 -179 36.5t-147 98.5t-98.5 147t-36.5 179t36.5 179t98.5 147t147 98.5t179 36.5zM512 896
q-139 0 -257 -68.5t-186.5 -186.5t-68.5 -257t68.5 -257t186.5 -186.5t257 -68.5t257 68.5t186.5 186.5t68.5 257t-68.5 257t-186.5 186.5t-257 68.5zM512 620l99 -236l-99 -236l-99 236zM512 752l-155 -368l155 -368l155 368zM512 16l-155 368h310z" />
    <glyph glyph-name="uniE640" unicode="&#xe640;" 
d="M512 -59l-7 5q-12 8 -30 21t-62.5 49.5t-85 75t-89 95t-83 112.5t-58 125t-23.5 135q0 67 25.5 127.5t76.5 100.5t117 40q74 0 134 -43.5t85 -113.5q25 70 85 113.5t134 43.5q66 0 117 -40t76.5 -100.5t25.5 -127.5q0 -47 -11.5 -95t-32 -91.5t-46 -85.5t-57.5 -79.5
t-62 -70.5t-63 -62.5t-58 -51t-50 -40t-34.5 -26t-16.5 -11.5zM293 795q-44 0 -80.5 -20.5t-60.5 -54t-37.5 -75.5t-13.5 -86q0 -58 20.5 -119t51 -112.5t73.5 -103.5t81 -89.5t80.5 -74t64.5 -53t40 -29.5q18 13 40 29.5t64.5 53t80.5 74t81 89.5t73.5 103.5t51 112.5
t20.5 119q0 25 -4.5 49.5t-13 48t-20.5 44t-28 38t-35 30t-42.5 19.5t-48.5 7q-79 0 -142 -57t-63 -148h-28q0 61 -31 109t-77.5 72t-96.5 24v0zM502 -59l-7 5q-12 8 -30 21t-62.5 49.5t-85 75t-89 95t-83 112.5t-58 125t-23.5 135q0 67 25.5 127.5t76.5 100.5t117 40
q37 0 72 -12t63 -32.5t50 -49.5t34 -63q24 70 84 113.5t135 43.5q66 0 117 -40t76.5 -100.5t25.5 -127.5q0 -52 -14.5 -105.5t-37.5 -100t-56 -93.5t-66 -84.5t-71 -74.5t-66.5 -62t-58.5 -48t-41.5 -31.5t-19.5 -13.5zM283 795q-86 0 -139 -71.5t-53 -164.5
q0 -58 20.5 -119t51 -112.5t73.5 -103.5t81 -89.5t80 -74t64 -53t41 -29.5q18 13 40 29.5t64.5 53t80.5 74t80.5 89.5t73.5 103.5t51.5 112.5t20.5 119q0 44 -13.5 86t-37.5 75.5t-61 54t-80 20.5q-79 0 -142.5 -57t-63.5 -148h-27q0 61 -31 109t-77.5 72t-96.5 24v0z
M508 -59l-7 5q-12 8 -30 21t-62.5 49.5t-85 75t-89 95t-83 112.5t-58 125t-23.5 135q0 67 25.5 127.5t76.5 100.5t117 40q37 0 72 -12t63 -32.5t50 -49.5t34 -63q16 46 48.5 81.5t77 55.5t93.5 20q66 0 117 -40t76.5 -100.5t25.5 -127.5q0 -66 -23.5 -135t-58 -125
t-83 -112.5t-89 -95t-85 -75t-62.5 -49.5t-30 -21zM289 795q-86 0 -139 -71.5t-53 -164.5q0 -58 20.5 -119t51 -112.5t73.5 -103.5t81 -89.5t80.5 -74t64.5 -53t40 -29.5q18 13 40 29.5t64.5 53t80.5 74t81 89.5t73.5 103.5t51 112.5t20.5 119q0 44 -13.5 86t-37.5 75.5
t-61 54t-80 20.5q-79 0 -142 -57t-63 -148h-28q0 61 -31 109t-77.5 72t-96.5 24v0zM289 795z" />
    <glyph glyph-name="uniE641" unicode="&#xe641;" 
d="M953 163q-16 10 -47 26.5t-111 46.5t-154 43v5q-1 3 -1 8v10q0 5 0.5 11t1.5 11q1 4 3.5 9.5t4.5 10.5l5 9q2 4 4 7q40 57 57 176q5 30 5 59q0 5 -0.5 10t-0.5 9.5v9.5l-2 8v9q-10 68 -42.5 110.5t-96.5 68.5q-19 8 -57 8l-11 -1l-11 1q-38 0 -58 -8q-58 -26 -89 -69.5
t-40 -114.5q-3 -21 -3 -45q0 -44 3 -55q11 -30 20 -60t19 -63.5t16 -52.5q0 -2 7.5 -16t9.5 -23q3 -16 2 -37v-3q-75 -11 -156.5 -41.5t-112 -47t-48.5 -26.5l-12 -8v-182l25 -1h2q38 -1 83 -2.5t152 -3t193 -1.5q219 0 428 4h25v184zM939 1q-355 -6 -419 -6
q-66 0 -170.5 -1.5t-158 -2t-103.5 0.5l-3 138q6 20 62 49t130 51.5t127 23.5q7 0 9.5 0.5t4 1.5t1 2t-0.5 4.5t1 7.5v0l-8 63q0 2 -34.5 95.5t-35.5 111.5q-1 13 -0.5 21t1 12t1.5 8t1 9q0 16 8 78q8 54 32.5 79.5t77.5 48.5q9 4 50 3l24 -3l27 -1q7 0 11 -1.5t9 -4.5t8 -4
q42 -17 61 -50.5t28 -98.5q0 -2 3 -16t3 -22q0 -5 0.5 -16t0.5 -19.5t-1 -16.5q-5 -39 -9 -59.5t-13.5 -52t-23.5 -50.5q-14 -21 -21 -55q-1 -3 -1.5 -7t-1 -7.5t-1 -6.5t-0.5 -6v-6v-4v-4q0 -2 1 -4v-1l-7 -20q0 -6 5.5 -8.5t19.5 -3t15 -0.5q40 -5 78 -15.5t72 -26
t54.5 -26t48.5 -27t30 -17.5l9 -106zM939 1z" />
    <glyph glyph-name="uniE642" unicode="&#xe642;" 
d="M474 -44h-6q-7 0 -14.5 1t-17.5 4q-34 8 -60 17q-79 28 -114 52v0q1 1 3.5 3t3.5 3l3 3q2 2 3 3.5t2 4t0.5 4.5t-1.5 5q0 2 5 -1q1 0 3 -2l7 -3q19 -8 58.5 -27t56.5 -25q55 -19 137 -13q72 6 137 36q78 35 135 100q63 72 87 163q17 65 11 134q-2 27 -7.5 53.5
t-14.5 51.5t-22 50q-41 78 -111 133q-72 54 -159 74q-15 3 -29.5 5t-29.5 3t-30 1t-30 -1q-158 -14 -266 -130q-36 -40 -60 -86t-35 -99q-13 -58 -9 -118q9 -110 73 -201l1 -1q0 -1 1 -1q-21 -18 -23 -20q-1 3 -6 6.5t-7 6.5q-23 35 -35 66.5t-22 77.5q-1 5 -5 22.5t-6 30
t-3 22.5q0 3 -1 15l4 21q3 59 16 106q32 115 136 208q33 29 62.5 47.5t68.5 34.5q17 6 32 9.5t23.5 4.5t34.5 2q4 1 26 1.5t26 0.5l18 2q0 -1 4 -2.5t5 -1.5q24 2 37 0q32 -3 62.5 -10.5t58.5 -19.5q42 -18 75.5 -43t67.5 -60q25 -27 40.5 -46.5t29 -46t19.5 -54.5
q4 -26 9.5 -48.5t7.5 -29t4 -20t0 -21.5q-1 -13 0 -27l3 -14q-1 -9 -1 -15q-2 -44 -17 -85q-22 -59 -53 -108t-78 -102q-18 -20 -41 -35t-40 -22.5t-52 -19.5q-9 -3 -22.5 -8.5t-19.5 -7.5t-17.5 -4t-25.5 -3q-2 0 -5 -2.5t-5 -3t-6 2.5l-44 -7l-32 1zM534 379l2 -239l-32 2
l1 237h-239l1 29l233 -1l1 235l33 -1l-3 -237l227 5v-30h-224v0z" />
    <glyph glyph-name="uniE643" unicode="&#xe643;" horiz-adv-x="1226" 
d="M929 586q-53 85 -140 133.5t-187 48.5q-131 0 -235 -81t-137 -207q-70 -30 -112.5 -93.5t-42.5 -140.5q0 -80 46.5 -145.5t121.5 -93.5l6 -2h692l5 1q101 23 165.5 103.5t64.5 184.5q0 110 -70 192.5t-177 99.5zM932 85h-668q-24 10 -44.5 26.5t-34.5 37.5t-21.5 46
t-7.5 51q0 38 15 71.5t42.5 58.5t62.5 36l23 7l4 23q22 107 106.5 176.5t192.5 69.5q35 0 68.5 -8t63.5 -22.5t57 -36t48 -47.5q-67 -10 -128 -41t-108 -80q-3 -2 -4 -4q-1 0 -1.5 -0.5t-0.5 -1.5q-7 -10 -7 -21q0 -15 10.5 -26t25.5 -11q3 0 6.5 1t6.5 2.5t6 2.5l1 -1l1 1
l1 1q50 56 120 85.5t148 25.5q78 -13 129 -73t51 -140q0 -75 -45.5 -133t-118.5 -76zM859 351h-441q-9 0 -16.5 -5.5t-12 -14.5t-4.5 -19q0 -17 9.5 -28.5t23.5 -11.5h441q14 0 24 11.5t10 28t-10 28t-24 11.5zM859 225h-441q-14 0 -23.5 -11.5t-9.5 -27.5q0 -10 4.5 -19.5
t12 -14.5t16.5 -5h441q7 0 13 3t10.5 8.5t7.5 12.5t3 15q0 11 -4.5 20t-12.5 14t-17 5z" />
    <glyph glyph-name="uniE644" unicode="&#xe644;" horiz-adv-x="1226" 
d="M1172 696l-34 67l-122 -62l-59 140l-70 -29l61 -145l-49 -25l-61 144l-69 -29l62 -149l-152 -77q-102 97 -241 97q-95 0 -176 -47t-128 -127.5t-47 -175.5t47 -176t128 -128t176 -47q71 0 136 28t112 75t74.5 111.5t27.5 136.5q0 106 -59 194zM438 5q-113 0 -193 80
t-80 192.5t80 193t193 80.5q74 0 137 -37t99.5 -99.5t36.5 -136.5q0 -113 -80 -193t-193 -80z" />
    <glyph glyph-name="uniE645" unicode="&#xe645;" horiz-adv-x="1226" 
d="M1058 879h-886q-23 0 -41.5 -11t-29.5 -30t-11 -41v-137q0 -34 24 -58t58 -24h886q34 0 58 24t24 58v137q0 34 -24 58t-58 24zM1064 660q0 -6 -6 -6h-886q-6 0 -6 6v137q0 6 6 6h886q6 0 6 -6v-137zM231 761h61v-61h-61v61zM345 761h61v-61h-61v61zM459 761h60v-61h-60
v61zM573 761h60v-61h-60v61zM914 761h-114v-61h175v61h-38h-23zM1058 537h-886q-34 0 -58 -24t-24 -58v-137q0 -34 24 -58t58 -24h886q13 0 25.5 4.5t22.5 12t17.5 17.5t12 22.5t4.5 25.5v137q0 23 -11 41.5t-30 29.5t-41 11zM1064 318q0 -2 -1.5 -4t-4.5 -2h-886q-6 0 -6 6
v137q0 3 1.5 4.5t4.5 1.5h886q6 0 6 -6v-137zM231 419h61v-60h-61v60zM345 419h61v-60h-61v60zM459 419h60v-60h-60v60zM573 419h60v-60h-60v60zM914 419h-114v-60h175v60h-38h-23zM1058 195h-886q-10 0 -19 -2t-17 -6t-15.5 -9.5t-13 -12.5t-9.5 -15t-6 -17.5t-2 -18.5
v-138q0 -33 24 -57t58 -24h886q34 0 58 24t24 57v138q0 22 -11 40.5t-30 29.5t-41 11zM1064 -24q0 -5 -6 -5h-886q-6 0 -6 5v138q0 5 6 5h886q6 0 6 -5v-138zM231 78h61v-61h-61v61zM345 78h61v-61h-61v61zM459 78h60v-61h-60v61zM573 78h60v-61h-60v61zM914 78h-114v-61
h175v61h-38h-23z" />
    <glyph glyph-name="uniE646" unicode="&#xe646;" horiz-adv-x="1226" 
d="M980 677h-121l-74 133h-331l-75 -133h-121q-59 0 -101 -42.5t-42 -101.5v-429q0 -59 42 -101.5t101 -42.5h722q59 0 101 42.5t42 101.5v429q0 23 -7 45t-20.5 40t-31 31t-39.5 20.5t-45 7.5zM1048 104q0 -9 -2.5 -18t-6.5 -16.5t-10.5 -14t-14 -10.5t-16.5 -6.5t-18 -2.5
h-722q-28 0 -48 20t-20 48v429q0 28 20 48.5t48 20.5h165l75 133h242l75 -133h165q28 0 48 -20.5t20 -48.5v-429zM619 550q-85 0 -145 -60t-60 -145q0 -55 27.5 -102.5t75 -75t102.5 -27.5q85 0 145 60t60 145q0 56 -27.5 103t-74.5 74.5t-103 27.5zM619 215q-54 0 -92 38.5
t-38 91.5q0 35 17.5 65t47.5 47.5t65 17.5t65 -17.5t47.5 -47.5t17.5 -65t-17.5 -65t-47.5 -47.5t-65 -17.5z" />
    <glyph glyph-name="uniE647" unicode="&#xe647;" horiz-adv-x="1226" 
d="M1017 336h-70l150 526q2 8 0.5 15.5t-5 14t-10 11.5t-14.5 7t-15.5 1t-14.5 -4t-12 -9t-7 -14l-155 -548h-444l-156 548q-4 15 -18.5 22.5t-30.5 3.5q-10 -3 -17.5 -10.5t-10.5 -17.5t0 -20l149 -526h-69q-72 0 -123.5 -51t-51.5 -123v-125q0 -72 51.5 -123.5
t123.5 -51.5h750q16 0 31 3t29.5 8.5t27.5 13t24 17t21 21t17.5 24.5t13 27t8 29.5t2.5 31.5v125q0 72 -51 123t-123 51zM1110 37q0 -39 -27.5 -66.5t-65.5 -27.5h-750q-39 0 -66.5 27.5t-27.5 66.5v125q0 38 27.5 65.5t66.5 27.5h750q38 0 65.5 -27.5t27.5 -65.5v-125z
M410 179q-16 0 -31 -6.5t-25.5 -17t-17 -25.5t-6.5 -31q0 -21 11 -39.5t29 -29.5t40 -11q33 0 56.5 23.5t23.5 56.5t-23.5 56.5t-56.5 23.5z" />
    <glyph glyph-name="uniE648" unicode="&#xe648;" horiz-adv-x="1226" 
d="M1168 628l-129 223q-11 20 -35 20h-257q-23 0 -35 -20l-92 -160l-93 160q-11 20 -34 20h-258q-10 0 -19.5 -5.5t-15.5 -14.5l-128 -223q-12 -20 0 -40l128 -223q4 -6 9.5 -10.5t12 -7t13.5 -2.5h186l-93 -161q-12 -20 0 -40l128 -223q12 -20 35 -20h257q24 0 35 20
l129 223q12 20 0 40l-93 161h185q24 0 35 20l129 223q11 20 0 40zM621 527l57 -101h-116zM153 608l106 183h210l105 -183l-105 -182h-210zM725 -18h-210l-106 182l105 181h212l104 -181zM981 426h-210l-105 184l105 181h210l105 -183z" />
    <glyph glyph-name="uniE649" unicode="&#xe649;" horiz-adv-x="1226" 
d="M1163 385q0 18 -2 45v1l-1 9q-15 148 -103 265t-221 173h-1q-10 5 -21.5 9t-22.5 8l-6 1q-10 4 -20.5 6.5t-21.5 4.5q-1 1 -3 1t-3.5 0.5t-2.5 1.5q-18 3 -41 6q-2 0 -4 0.5t-4 0.5h-4q-2 1 -5 1h-4h-4q-2 0 -4 0.5t-4 0.5h-5l-1 1h-26h-27l-1 -1q-121 -6 -225.5 -62.5
t-175.5 -151t-95 -210.5l-2 -9q-1 -4 -2 -13t-1 -11q-4 -24 -4 -25q-3 -27 -3 -52q0 -12 1 -24t2 -25q0 -4 1 -12l1 -3q0 -1 0.5 -8t1.5 -11l1 -9l1 -1q32 -182 172 -306.5t327 -134.5l1 -1h27h26l1 1q3 0 8 0.5t9 0.5h8q5 1 31 5q2 0 6 0.5t7.5 1t6.5 1.5q9 2 18.5 4.5
t21.5 5.5q1 0 4 0.5t4 1.5q21 6 45 15v1h1q139 55 230 176l1 1l1 1q13 19 25 37q0 1 3 6q6 9 11 18t9 18q1 2 2 3.5t2 3.5t1 3q9 19 15 35l2 4q1 2 2 5.5t2 4.5q6 19 11 33q0 3 1 5.5t2 7t1 5.5q2 6 3 10.5t2 10t2 10.5q1 3 1.5 6.5t1 8t0.5 5.5q4 22 4 32q1 1 1 2v3l1 8
l-1 1q2 28 2 33zM1091 294q-3 -13 -8 -34q-1 -2 -1.5 -5t-1.5 -4q-1 -5 -2.5 -9t-3 -8.5t-3 -8.5t-2.5 -8q-1 -1 -1 -3l-2 -2v-3q-7 -16 -16 -34q0 -1 -1 -2.5t-1 -2.5q-9 -17 -20 -34q0 -1 -0.5 -1.5t-0.5 -1.5q-6 -9 -12 -17.5t-12 -16.5l-1 -1q-66 -86 -162 -135h-2
q-18 -9 -37 -17q-1 0 -2.5 -1t-2.5 -1q-19 -7 -36 -12q-1 -1 -3.5 -1.5t-3.5 -0.5q96 95 146 221q116 66 196 173v-5q0 -2 -0.5 -4.5t-1 -4.5t-1 -4.5t-0.5 -4.5v-3zM159 327q0 4 -0.5 8.5t-0.5 10t-1 8.5h156q0 -13 1 -25t3 -24.5t4 -24.5l4 -24q2 -12 5 -23.5t6.5 -23.5
t7.5 -23q-106 49 -184 134v4q-1 2 -1 3zM160 447q0 5 1 10l2 10q79 85 187 134q-11 -29 -18.5 -59.5t-12.5 -62t-6 -63.5h-156v4v2v4v3q1 2 1 4.5t0.5 4.5t1 4.5t0.5 4.5zM772 835q7 -2 13 -4.5t13 -5t13 -5.5h1q70 -30 127 -80t96 -116.5t55 -141.5q0 -2 1 -6.5t1 -6.5v-3
l1 -2q-83 108 -202 173q-49 116 -138 203q1 0 3 -0.5t3.5 -1t3.5 -1t3 -0.5q1 -1 3 -1.5t3 -0.5zM659 -67v141q79 9 151 35q-56 -102 -151 -176zM659 137v217h220q-5 -84 -31 -159q-89 -46 -189 -58zM659 837q85 -66 140 -159q-67 24 -140 32v127zM842 592q32 -82 37 -176
h-220v231q96 -12 183 -55zM943 416q-4 65 -19 127q72 -53 126 -127h-107zM943 354h96q-48 -63 -111 -110q6 27 9.5 54.5t5.5 55.5zM596 837v-122h-4h-6q-28 0 -56.5 -3t-58.5 -8q50 75 125 133zM586 652h6h4v-236h-220q7 113 54 214q79 22 156 22zM376 354h220v-222h-3h-4
h-3q-81 0 -163 24q-20 47 -32 96.5t-15 101.5zM586 69h3h4h3v-136q-80 63 -134 149q64 -13 124 -13zM503 840q-71 -69 -118 -158q-99 -33 -185 -98q44 94 123 161t180 95zM190 208q86 -68 187 -103q16 -33 35 -63t42 -58.5t48 -53.5q-106 29 -188.5 102.5t-123.5 175.5z" />
    <glyph glyph-name="uniE64A" unicode="&#xe64a;" horiz-adv-x="1226" 
d="M403 637q-10 0 -17.5 -4.5t-12.5 -12.5t-5 -17v-507q0 -10 5 -17.5t12.5 -12t17.5 -4.5q14 0 24 10t10 24v507q0 14 -10 24t-24 10zM768 637q-11 0 -22 -1.5t-21.5 -3.5t-21 -5.5t-20 -7.5t-18.5 -9.5t-17.5 -11.5t-16.5 -13v18q0 14 -10 24t-24 10q-7 0 -13.5 -3
t-11 -7.5t-7 -10.5t-2.5 -13v-507q0 -10 4.5 -17.5t12.5 -12t17 -4.5q14 0 24 10t10 24v187q28 -25 63 -38.5t74 -13.5q85 0 145.5 59.5t60.5 143.5q0 55 -27.5 101.5t-75 74t-103.5 27.5zM768 299q-22 0 -43 6.5t-38 19t-29.5 29.5t-19.5 37.5t-7 42.5q0 27 11 52
t29.5 43.5t43.5 29t53 10.5q57 0 97 -39.5t40 -95.5t-40 -95.5t-97 -39.5zM606 907q-107 0 -204.5 -41t-168.5 -111t-112.5 -166.5t-41.5 -202t41.5 -202t112.5 -166.5t168.5 -111t204.5 -41t205 41t168.5 111t112 166.5t41.5 201.5q0 85 -26.5 164.5t-75.5 143.5
t-113.5 112.5t-145 74.5t-166.5 26zM606 -67q-93 0 -178 36t-146.5 96.5t-98 144.5t-36.5 176q0 74 23 143.5t65.5 125t99 97.5t126.5 65t145 23t145 -23t126.5 -65t99 -97.5t65.5 -125t23 -142.5q0 -93 -36.5 -177t-98 -144.5t-146.5 -96.5t-178 -36z" />
    <glyph glyph-name="uniE64B" unicode="&#xe64b;" horiz-adv-x="1226" 
d="M549 891h-325q-21 0 -39 -10t-28.5 -28t-10.5 -39v-325q0 -21 10.5 -39t28.5 -28.5t39 -10.5h325q21 0 39 10.5t28.5 28.5t10.5 39v325q0 32 -23 54.5t-55 22.5zM553 489q0 -2 -1 -3t-3 -1h-325q-3 2 -4 4v325q2 2 4 3h325q4 0 4 -3v-325zM1077 891h-325q-32 0 -55 -22.5
t-23 -54.5v-325q0 -21 10.5 -39t28.5 -28.5t39 -10.5h325q32 0 55 22.5t23 55.5v325q0 21 -10.5 39t-28.5 28t-39 10zM1081 489q0 -4 -4 -4h-325q-1 0 -2 1t-1 3v325q0 1 1 2t2 1h325q4 0 4 -3v-325zM549 363h-325q-32 0 -55 -22.5t-23 -54.5v-326q0 -32 23 -54.5t55 -22.5
h325q32 0 55 22.5t23 54.5v326q0 32 -23 54.5t-55 22.5zM553 -40q0 -1 -1 -2t-3 -1h-325q-1 0 -2.5 1t-1.5 2v326q0 1 1.5 2t2.5 1h325q4 0 4 -3v-326zM1077 363h-325q-32 0 -55 -22.5t-23 -54.5v-326q0 -15 6.5 -29.5t17 -25t24.5 -16.5t30 -6h325q11 0 21 2.5t18.5 7.5
t15.5 12.5t12 16t8 18.5t3 20v326q0 15 -6 29.5t-16.5 25t-25 16.5t-30.5 6zM1081 -40q0 -3 -4 -3h-325q-2 1 -3 3v326q1 2 3 3h325q4 0 4 -3v-326z" />
    <glyph glyph-name="uniE64C" unicode="&#xe64c;" horiz-adv-x="1226" 
d="M571 918h80v-1065h-80v1065zM1151 107l-364 663q-6 9 -12.5 15.5t-13.5 9.5t-15 3q-2 0 -5.5 -0.5t-10 -3.5t-11 -7.5t-8.5 -15t-4 -24.5v-649q0 -43 38 -64q16 -9 35 -9h357l20 1l9 16q12 22 -15 65zM780 89q-3 0 -5 1t-3.5 3t-1.5 5l1 570l318 -579h-309zM476 798
q-5 0 -9.5 -1t-9 -3.5t-8.5 -6t-7.5 -8t-7.5 -10.5l-363 -660q-27 -45 -15 -67l10 -17h376q30 0 51.5 21.5t21.5 51.5v649q0 14 -4 24.5t-8.5 15t-11 7.5t-10 3.5t-5.5 0.5zM452 98q0 -9 -10 -9h-309l319 579v-570z" />
  </font>
</defs>
</svg>
