<?xml version='1.0' standalone='no'?>
<!DOCTYPE svg PUBLIC '-//W3C//DTD SVG 1.1//EN' 'http://www.w3.org/Graphics/SVG/1.1/DTD/svg11.dtd'>
<!-- Generated with svg-spin generator script from Robert Fleischmann (http://github.com/rendro/SVG-Spinner) -->
<svg xmlns='http://www.w3.org/2000/svg' version='1.1' width='110px' height='110px' viewBox="0 0 145 145">
  <g transform="matrix(1,0,0,1,16.633,18.622)" xmlns="http://www.w3.org/2000/svg">
<ellipse fill="black" transform="rotate(0, 55, 5)" cx="55" cy="5" rx="5" ry="20" style="opacity:0;">
<animate attributeType="CSS" attributeName="opacity" from="1" to="0" dur="1.2s" repeatCount="indefinite" begin="0s" />
</ellipse>
<ellipse fill="black" transform="rotate(30, 80, 11.6987)" cx="80" cy="11.6987" rx="5" ry="20" style="opacity:0.1;">
<animate attributeType="CSS" attributeName="opacity" from="1" to="0" dur="1.2s" repeatCount="indefinite" begin="0.1s" />
</ellipse>
<ellipse fill="black" transform="rotate(60, 98.3013, 30)" cx="98.3013" cy="30" rx="5" ry="20" style="opacity:0.2;">
<animate attributeType="CSS" attributeName="opacity" from="1" to="0" dur="1.2s" repeatCount="indefinite" begin="0.2s" />
</ellipse>
<ellipse fill="black" transform="rotate(90, 105, 55)" cx="105" cy="55" rx="5" ry="20" style="opacity:0.25;">
<animate attributeType="CSS" attributeName="opacity" from="1" to="0" dur="1.2s" repeatCount="indefinite" begin="0.3s" />
</ellipse>
<ellipse fill="black" transform="rotate(120, 98.3013, 80)" cx="98.3013" cy="80" rx="5" ry="20" style="opacity:0.3;">
<animate attributeType="CSS" attributeName="opacity" from="1" to="0" dur="1.2s" repeatCount="indefinite" begin="0.4s" />
</ellipse>
<ellipse fill="black" transform="rotate(150, 80, 98.3013)" cx="80" cy="98.3013" rx="5" ry="20" style="opacity:0.35;">
<animate attributeType="CSS" attributeName="opacity" from="1" to="0" dur="1.2s" repeatCount="indefinite" begin="0.5s" />
</ellipse>
<ellipse fill="black" transform="rotate(180, 55, 105)" cx="55" cy="105" rx="5" ry="20" style="opacity:0.4;">
<animate attributeType="CSS" attributeName="opacity" from="1" to="0" dur="1.2s" repeatCount="indefinite" begin="0.6s" />
</ellipse>
<ellipse fill="black" transform="rotate(210, 30, 98.3013)" cx="30" cy="98.3013" rx="5" ry="20" style="opacity:0.5;">
<animate attributeType="CSS" attributeName="opacity" from="1" to="0" dur="1.2s" repeatCount="indefinite" begin="0.7s" />
</ellipse>
<ellipse fill="black" transform="rotate(240, 11.6987, 80)" cx="11.6987" cy="80" rx="5" ry="20" style="opacity:0.6;">
<animate attributeType="CSS" attributeName="opacity" from="1" to="0" dur="1.2s" repeatCount="indefinite" begin="0.8s" />
</ellipse>
<ellipse fill="black" transform="rotate(270, 5, 55)" cx="5" cy="55" rx="5" ry="20" style="opacity:0.7;">
<animate attributeType="CSS" attributeName="opacity" from="1" to="0" dur="1.2s" repeatCount="indefinite" begin="0.9s" />
</ellipse>
<ellipse fill="black" transform="rotate(300, 11.6987, 30)" cx="11.6987" cy="30" rx="5" ry="20" style="opacity:0.8;">
<animate attributeType="CSS" attributeName="opacity" from="1" to="0" dur="1.2s" repeatCount="indefinite" begin="1s" />
</ellipse>
<ellipse fill="black" transform="rotate(330, 30, 11.6987)" cx="30" cy="11.6987" rx="5" ry="20" style="opacity:0.9;">
<animate attributeType="CSS" attributeName="opacity" from="1" to="0" dur="1.2s" repeatCount="indefinite" begin="1.1s" />
</ellipse>
</g>
</svg>
